<svg xmlns="http://www.w3.org/2000/svg" xmlns:xlink="http://www.w3.org/1999/xlink" width="353" height="400" viewBox="0 0 353 400">
    <defs>
        <path id="prefix__a" d="M0 397.466L353 397.466 353 0.593 0 0.593z"/>
    </defs>
    <g fill="none" fill-rule="evenodd">
        <path fill="#6E46AE" d="M332.578 0H109.641C98.41 0 89.22 9.071 89.22 20.158v146.149c0 11.087 9.19 20.158 20.421 20.158h100.087l117.745 68.875-15.117-68.875h20.222c11.232 0 20.422-9.071 20.422-20.158V20.158C353 9.071 343.81 0 332.578 0z"/>
        <path fill="#D5D3E4" d="M327.176 11.65H130.56c-9.403 0-17.097 7.727-17.097 17.17v124.477c0 9.441 7.694 17.168 17.097 17.168h93.765l88.683 58.661-12.657-58.66h26.824c9.402 0 17.096-7.728 17.096-17.17V28.822c0-9.444-7.694-17.17-17.096-17.17z"/>
        <g transform="translate(0 1.942)">
            <mask id="prefix__b" fill="#fff">
                <use xlink:href="#prefix__a"/>
            </mask>
            <g mask="url(#prefix__b)">
                <g>
                    <path fill="#B557AF" d="M210.956 127.372h30.686V99.079h-30.686v28.293zm27.523-46.381c0 3.247 1.424 6.338 3.954 9.585H208.74c-2.688-3.401-4.586-7.731-4.586-11.596 0-23.346 34.8-35.56 34.8-45.455 0-3.71-3.954-7.111-8.7-7.111-4.745 0-9.018 3.4-9.018 7.111v7.886h-31.16V31.98c0-14.535 15.185-31.387 39.227-31.387 27.684 0 42.235 17.008 42.235 31.695 0 25.047-33.059 30.768-33.059 48.703z" transform="translate(0 22.048)"/>
                    <path fill="#00B6B4" d="M20.052 116.347h220.573c11.03 0 20.052 9.085 20.052 20.187v146.358c0 11.103-9.023 20.187-20.052 20.187h-99.946l-110.6 72.338 9.83-72.338H20.052C9.022 303.08 0 293.995 0 282.892V136.534c0-11.102 9.023-20.187 20.052-20.187z" transform="translate(0 22.048)"/>
                    <path fill="#E6E7E8" d="M28.159 127.372h198.928c9.513 0 17.298 7.833 17.298 17.407v126.199c0 9.572-7.785 17.406-17.298 17.406H132.22l-89.727 59.472 12.806-59.472h-27.14c-9.512 0-17.296-7.834-17.296-17.406V144.779c0-9.574 7.784-17.407 17.297-17.407z" transform="translate(0 22.048)"/>
                </g>
            </g>
        </g>
    </g>
</svg>
