<?xml version="1.0" encoding="UTF-8"?>
<svg width="511px" height="695px" viewBox="0 0 511 695" version="1.1" xmlns="http://www.w3.org/2000/svg" xmlns:xlink="http://www.w3.org/1999/xlink">
    <!-- Generator: Sketch 62 (91390) - https://sketch.com -->
    <title>Group 2</title>
    <desc>Created with Sketch.</desc>
    <defs>
        <polygon id="path-1" points="0 0 314 0 314 405 0 405"></polygon>
        <polygon id="path-3" points="0 0 394 0 394 394 0 394"></polygon>
    </defs>
    <g id="Monster_Orbit_HP_Desktop-" stroke="none" stroke-width="1" fill="none" fill-rule="evenodd">
        <g id="Monster_Orbit_HP_Desktop" transform="translate(-558.000000, -2408.000000)">
            <g id="Group-2" transform="translate(558.000000, 2408.000000)">
                <g id="Group-3" transform="translate(0.000000, 290.000000)">
                    <mask id="mask-2" fill="white">
                        <use xlink:href="#path-1"></use>
                    </mask>
                    <g id="Clip-2"></g>
                    <path d="M180.80855,295.121291 L176.374606,296.620998 C165.158807,300.417018 152.884746,294.322886 149.098315,283.076884 L142.684163,264.026653 C126.17346,257.907346 115.901131,240.649929 119.15843,222.684018 C122.808541,202.547669 142.050999,189.18877 162.136479,192.848127 C182.221959,196.507483 195.54711,215.798674 191.896998,235.935024 C191.122134,240.211166 189.608279,244.158236 187.56888,247.724086 L194.318448,267.774121 C198.106672,279.020124 192.026142,291.325271 180.80855,295.121291 M312.775789,304.752501 L243.895398,109.288928 C239.952918,98.0986704 227.59276,92.1789647 216.430772,96.1314292 L65.4757769,149.597592 L46.8485475,103.050939 C46.8485475,103.050939 34.6444388,67.3762612 71.7751346,44.9975441 C71.7751346,44.9975441 118.284914,16.4923273 148.04902,71.7495067 C148.504612,72.8032575 149.012219,73.7491157 149.548526,74.6356329 C149.898291,75.3297418 150.246262,76.0238507 150.588852,76.7449327 L150.917093,76.6226544 C154.595904,81.2566403 159.819062,83.022482 166.846648,83.022482 C178.742246,83.022482 191.285358,73.6735909 191.285358,61.7478655 C191.285358,61.7478655 189.850424,58.4139851 186.905223,53.2998773 C185.986866,51.0161513 184.688251,48.9266319 183.091888,47.099651 C167.300446,22.9407065 128.094477,-19.7433921 60.5431933,10.3640294 C60.5431933,10.3640294 -14.5899203,40.5271953 2.53959733,115.169073 L20.5910597,165.495562 L14.6002127,167.617449 C3.43822438,171.569914 -2.46832029,183.961375 1.47595293,195.151633 L70.3563442,390.615206 C74.3006174,401.805464 86.6607751,407.726968 97.8209697,403.772705 L299.653323,332.286685 C310.813517,328.334221 316.720062,315.942759 312.775789,304.752501" id="Fill-1" fill="#FEFEFE" mask="url(#mask-2)"></path>
                </g>
                <g id="Group-3" transform="translate(117.000000, 0.000000)">
                    <mask id="mask-4" fill="white">
                        <use xlink:href="#path-3"></use>
                    </mask>
                    <g id="Clip-2"></g>
                    <path d="M96.7759781,141.698624 C72.6529457,141.698624 53.093951,122.166574 53.093951,98.0722202 C53.093951,73.977866 72.6529457,54.4458167 96.7759781,54.4458167 C120.901053,54.4458167 140.460047,73.977866 140.460047,98.0722202 C140.460047,122.166574 120.901053,141.698624 96.7759781,141.698624 M374.112231,314.266736 L270.307431,210.836816 L273.740159,207.687867 C280.021582,201.93043 280.438165,192.175623 274.671345,185.902198 L255.179739,164.69778 C258.275525,153.59488 259.964321,141.90665 259.964321,129.816644 C259.964321,58.1209502 201.769266,0 129.98216,0 C58.1950544,0 0,58.1209502 0,129.816644 C0,201.512338 58.1950544,259.633288 129.98216,259.633288 C141.705713,259.633288 153.055566,258.058813 163.858143,255.152562 L178.256814,270.817767 C184.985452,278.135402 196.38023,278.620797 203.707195,271.902768 L206.715172,269.145398 L224.538403,286.905144 L232.549463,279.299943 C242.316708,270.024412 257.905909,270.41803 267.193266,280.172838 C276.480624,289.927645 276.086503,305.496995 266.317216,314.772526 L259.247552,321.488516 L276.9891,339.166683 L292.016731,324.896479 C301.786017,315.620948 317.373176,316.014566 326.660534,325.769374 C335.947891,335.526221 335.555812,351.095571 325.786525,360.371102 L311.696208,373.750056 L321.512462,383.529337 C324.698099,386.70276 328.518822,388.872761 332.576425,390.045459 C338.073691,392.560131 344.165201,394 350.607948,394 C374.571698,394 394,374.596438 394,350.663202 C394,335.387536 386.066538,321.984109 374.112231,314.266736" id="Fill-1" fill="#00B5B2" mask="url(#mask-4)"></path>
                </g>
            </g>
        </g>
    </g>
</svg>