<svg xmlns="http://www.w3.org/2000/svg" xmlns:xlink="http://www.w3.org/1999/xlink" width="329" height="394" viewBox="0 0 329 394">
    <defs>
        <path id="prefix__a" d="M0.185 0.246L313.958 0.246 313.958 393.754 0.185 393.754z"/>
    </defs>
    <g fill="none" fill-rule="evenodd">
        <g transform="translate(0 -48) translate(25 48)">
            <mask id="prefix__b" fill="#fff">
                <use xlink:href="#prefix__a"/>
            </mask>
            <path fill="#00B6B4" d="M284.075 393.754H20.107C9.15 393.754.185 385.081.185 374.48V19.52C.185 8.919 9.15.246 20.107.246h263.968c10.957 0 19.922 8.673 19.922 19.274v354.96c0 10.601-8.965 19.274-19.922 19.274z" mask="url(#prefix__b)"/>
        </g>
        <g>
            <path fill="#E6E7E8" d="M272.316 373H29.33c-10.691 0-19.439-8.681-19.439-19.291V19.29C9.89 8.68 18.638 0 29.329 0h242.987c10.691 0 19.439 8.68 19.439 19.291V353.71c0 10.61-8.748 19.291-19.439 19.291z" transform="translate(0 -48) translate(25 61)"/>
            <path fill="#FFF" d="M0 106.928c0-37.081 29.89-67.141 66.758-67.141 36.87 0 66.757 30.06 66.757 67.14 0 37.081-29.887 67.14-66.757 67.14C29.89 174.067 0 144.008 0 106.927z" transform="translate(0 -48) translate(25 61)"/>
        </g>
        <path fill="#3D2462" d="M190.448 104.99c-1.863 1.75-4.058 3.185-6.486 4.21-2.736 1.158-5.766 1.8-8.961 1.8-3.197 0-6.227-.642-8.963-1.8-2.428-1.03-4.628-2.464-6.486-4.21-.937-.88-1.792-1.844-2.552-2.874 1.355-4.247 5.565-7.367 10.518-7.367h14.964c4.953 0 9.163 3.12 10.518 7.367-.76 1.03-1.615 1.988-2.552 2.875zM174.994 73c5.141-.005 9.305 3.91 9.305 8.74-.007 4.746-4.235 8.724-9.288 8.724-5.141.005-9.303-3.912-9.303-8.741 0-4.74 4.233-8.718 9.286-8.723z" transform="translate(0 -48)"/>
        <path fill="#6E46AE" d="M189 193c0-2.762 2.462-5 5.5-5s5.5 2.238 5.5 5-2.462 5-5.5 5-5.5-2.238-5.5-5zM189 220c0-2.762 2.462-5 5.5-5s5.5 2.238 5.5 5-2.462 5-5.5 5-5.5-2.238-5.5-5zM189 236c0-2.762 2.462-5 5.5-5s5.5 2.238 5.5 5-2.462 5-5.5 5-5.5-2.238-5.5-5zM189 263c0-2.762 2.462-5 5.5-5s5.5 2.238 5.5 5-2.462 5-5.5 5-5.5-2.238-5.5-5zM281.128 143H61.872c-2.68 0-4.872-2.25-4.872-5s2.192-5 4.872-5h219.256c2.68 0 4.872 2.25 4.872 5s-2.192 5-4.872 5zM281.128 169H61.872c-2.68 0-4.872-2.25-4.872-5s2.192-5 4.872-5h219.256c2.68 0 4.872 2.25 4.872 5s-2.192 5-4.872 5zM278.34 198h-63.68c-2.563 0-4.66-2.25-4.66-5s2.097-5 4.66-5h63.68c2.563 0 4.66 2.25 4.66 5s-2.097 5-4.66 5zM278.34 225h-63.68c-2.563 0-4.66-2.25-4.66-5s2.097-5 4.66-5h63.68c2.563 0 4.66 2.25 4.66 5s-2.097 5-4.66 5zM278.34 241h-63.68c-2.563 0-4.66-2.25-4.66-5s2.097-5 4.66-5h63.68c2.563 0 4.66 2.25 4.66 5s-2.097 5-4.66 5zM278.34 268h-63.68c-2.563 0-4.66-2.25-4.66-5s2.097-5 4.66-5h63.68c2.563 0 4.66 2.25 4.66 5s-2.097 5-4.66 5zM276.105 331h-83.21c-2.692 0-4.895-2.25-4.895-5s2.203-5 4.895-5h83.21c2.692 0 4.895 2.25 4.895 5s-2.203 5-4.895 5zM276.105 350h-83.21c-2.692 0-4.895-2.252-4.895-5 0-2.75 2.203-5 4.895-5h83.21c2.692 0 4.895 2.25 4.895 5 0 2.748-2.203 5-4.895 5zM276.105 373h-83.21c-2.692 0-4.895-2.25-4.895-5 0-2.748 2.203-5 4.895-5h83.21c2.692 0 4.895 2.252 4.895 5 0 2.75-2.203 5-4.895 5zM276.105 390h-83.21c-2.692 0-4.895-2.25-4.895-5s2.203-5 4.895-5h83.21c2.692 0 4.895 2.25 4.895 5s-2.203 5-4.895 5zM150.105 202h-83.21c-2.692 0-4.895-2.25-4.895-5s2.203-5 4.895-5h83.21c2.692 0 4.895 2.25 4.895 5s-2.203 5-4.895 5zM150.105 225h-83.21c-2.692 0-4.895-2.25-4.895-5s2.203-5 4.895-5h83.21c2.692 0 4.895 2.25 4.895 5s-2.203 5-4.895 5zM150.105 250h-83.21c-2.692 0-4.895-2.25-4.895-5s2.203-5 4.895-5h83.21c2.692 0 4.895 2.25 4.895 5s-2.203 5-4.895 5zM150.105 268h-83.21c-2.692 0-4.895-2.25-4.895-5s2.203-5 4.895-5h83.21c2.692 0 4.895 2.25 4.895 5s-2.203 5-4.895 5zM133.34 331H69.66c-2.563 0-4.66-2.25-4.66-5s2.097-5 4.66-5h63.68c2.563 0 4.66 2.25 4.66 5s-2.097 5-4.66 5zM133.34 350H69.66c-2.563 0-4.66-2.252-4.66-5 0-2.75 2.097-5 4.66-5h63.68c2.563 0 4.66 2.25 4.66 5 0 2.748-2.097 5-4.66 5zM133.34 373H69.66c-2.563 0-4.66-2.25-4.66-5 0-2.748 2.097-5 4.66-5h63.68c2.563 0 4.66 2.252 4.66 5 0 2.75-2.097 5-4.66 5zM133.34 390H69.66c-2.563 0-4.66-2.25-4.66-5s2.097-5 4.66-5h63.68c2.563 0 4.66 2.25 4.66 5s-2.097 5-4.66 5z" transform="translate(0 -48)"/>
        <path fill="#007D91" d="M93.14 231.901c-36.779 0-66.593-29.507-66.593-65.907 0-36.4 29.814-65.907 66.593-65.907 36.78 0 66.594 29.507 66.594 65.907 0 36.4-29.815 65.907-66.594 65.907zM93.14 83c-46.314 0-83.86 37.157-83.86 82.994 0 29.459 15.522 55.314 38.9 70.042-1.268 1.243-2.322 2.739-3.056 4.46L1.108 343.575c-3.024 7.086.358 15.334 7.518 18.33 7.16 2.993 15.494-.354 18.52-7.44L71.16 251.385c.697-1.629 1.038-3.32 1.09-4.995 6.677 1.694 13.677 2.598 20.89 2.598 46.313 0 83.86-37.158 83.86-82.995S139.453 83 93.14 83z" transform="translate(0 -48)"/>
        <path fill="#FFF" d="M164 348.42c0-37.323 30.893-67.578 69-67.578 38.108 0 69 30.255 69 67.579C302 385.744 271.108 416 233 416c-38.107 0-69-30.256-69-67.58L232.062 0 164 348.42z" transform="translate(0 -48)"/>
        <path fill="#B557AF" d="M196.323 346.153c7.473 5.848 14.947 11.386 22.42 16.923 15.88-21.23 32.07-42.153 47.952-63.076 6.539 4.616 12.766 9.23 19.305 14.153-20.863 27.08-41.725 54.464-62.588 81.847-13.699-10.462-27.711-20.615-41.412-31.076 4.67-6.154 9.341-12.308 14.323-18.77z" transform="translate(0 -48)"/>
    </g>
</svg>
