<svg xmlns="http://www.w3.org/2000/svg" xmlns:xlink="http://www.w3.org/1999/xlink" width="354" height="397" viewBox="0 0 354 397">
    <defs>
        <path id="prefix__a" d="M0 0.817L297.213 0.817 297.213 370.682 0 370.682z"/>
        <path id="prefix__c" d="M0.045 0.624L322.157 0.624 322.157 376.855 0.045 376.855z"/>
    </defs>
    <g fill="none" fill-rule="evenodd">
        <mask id="prefix__b" fill="#fff">
            <use xlink:href="#prefix__a"/>
        </mask>
        <path fill="#00B6B4" d="M283.966 330.961l-210.85 39.45c-8.75 1.637-17.23-4.294-18.845-13.18L.267 59.67c-1.611-8.886 4.23-17.496 12.982-19.133l210.849-39.45c8.752-1.637 17.232 4.294 18.845 13.18l54.003 297.559c1.612 8.888-4.229 17.498-12.98 19.134z" mask="url(#prefix__b)"/>
        <path fill="#D5D3E4" d="M281.522 317.636L79.158 354.73c-8.904 1.632-17.532-4.28-19.172-13.135L8.273 62.434c-1.642-8.857 4.3-17.438 13.206-19.07L223.842 6.27c8.903-1.632 17.53 4.28 19.172 13.137l51.714 279.157c1.64 8.858-4.303 17.44-13.206 19.071z"/>
        <path fill="#3D2462" d="M141.564 68.727c-1.099 1.67-2.479 3.13-4.089 4.293-1.81 1.313-3.908 2.253-6.217 2.698-2.307.446-4.587.352-6.728-.2-1.9-.492-3.69-1.339-5.279-2.485-.8-.578-1.556-1.237-2.251-1.958.377-3.611 2.976-6.709 6.552-7.4l10.808-2.083c3.577-.69 7.06 1.233 8.64 4.465-.403.935-.884 1.825-1.436 2.67zM125.871 45.12c3.712-.72 7.273 1.852 7.957 5.741.669 3.822-1.822 7.615-5.47 8.319-3.713.72-7.273-1.853-7.957-5.741-.672-3.817 1.822-7.61 5.47-8.32z"/>
        <path fill="#6E46AE" d="M146.092 142.497c-.551-2.988 1.425-5.855 4.41-6.405 2.989-.55 5.858 1.424 6.406 4.413.55 2.985-1.424 5.853-4.41 6.403-2.988.551-5.856-1.425-6.406-4.41zM153.092 164.496c-.551-2.986 1.425-5.854 4.41-6.404 2.989-.55 5.856 1.424 6.406 4.412.55 2.986-1.424 5.852-4.413 6.404-2.985.55-5.853-1.426-6.403-4.412zM153.092 178.496c-.55-2.986 1.424-5.854 4.412-6.404 2.986-.55 5.854 1.424 6.404 4.412.55 2.986-1.424 5.852-4.412 6.404-2.986.55-5.852-1.426-6.404-4.412zM157.092 198.496c-.55-2.986 1.424-5.852 4.41-6.404 2.988-.55 5.857 1.424 6.406 4.412.551 2.986-1.425 5.852-4.41 6.404-2.989.55-5.856-1.426-6.406-4.412zM220.637 87.204L38.852 120.931c-2.222.414-4.375-1.08-4.784-3.317-.41-2.237 1.073-4.404 3.296-4.817l181.784-33.728c2.22-.413 4.373 1.08 4.784 3.318.41 2.237-1.073 4.404-3.295 4.817zM220.638 102.203L38.852 135.931c-2.222.413-4.375-1.08-4.784-3.318-.41-2.236 1.073-4.404 3.294-4.817L219.15 94.069c2.22-.414 4.373 1.08 4.783 3.317.41 2.237-1.072 4.404-3.294 4.817zM232.448 129.861l-58.322 11.065c-2.348.446-4.623-1.167-5.054-3.584-.433-2.416 1.134-4.757 3.481-5.204l58.322-11.064c2.346-.447 4.62 1.166 5.053 3.583.434 2.417-1.133 4.758-3.48 5.204zM235.448 151.861l-58.322 11.065c-2.346.446-4.622-1.167-5.054-3.584-.433-2.416 1.134-4.757 3.481-5.204l58.322-11.064c2.346-.447 4.62 1.166 5.053 3.583.434 2.417-1.133 4.758-3.48 5.204zM235.447 171.861l-58.321 11.065c-2.346.446-4.622-1.167-5.054-3.584-.433-2.418 1.134-4.759 3.481-5.204l58.321-11.064c2.346-.447 4.62 1.166 5.054 3.583.433 2.417-1.134 4.758-3.481 5.204zM243.447 187.861l-58.322 11.065c-2.346.446-4.622-1.167-5.053-3.584-.434-2.417 1.133-4.758 3.48-5.203l58.322-11.065c2.346-.446 4.62 1.167 5.054 3.584.433 2.417-1.134 4.758-3.481 5.203zM246.806 235.808l-65.2 12.127c-2.11.392-4.154-1.029-4.542-3.158-.388-2.129 1.02-4.192 3.13-4.585l65.2-12.127c2.11-.392 4.153 1.029 4.542 3.158.388 2.129-1.02 4.192-3.13 4.585zM252.808 260.808l-65.201 12.127c-2.109.392-4.154-1.029-4.543-3.158-.388-2.129 1.02-4.192 3.13-4.585l65.2-12.127c2.11-.392 4.153 1.029 4.542 3.158.388 2.129-1.02 4.192-3.128 4.585zM252.808 279.808l-65.201 12.127c-2.109.392-4.154-1.029-4.543-3.158-.388-2.129 1.02-4.192 3.13-4.585l65.2-12.127c2.11-.392 4.153 1.029 4.542 3.158.388 2.129-1.02 4.192-3.128 4.585zM257.808 294.808l-65.202 12.127c-2.109.392-4.154-1.029-4.541-3.158-.39-2.129 1.018-4.192 3.128-4.585l65.2-12.127c2.11-.392 4.154 1.029 4.543 3.158.388 2.129-1.02 4.192-3.128 4.585zM119.806 156.807l-65.2 12.128c-2.108.392-4.153-1.029-4.542-3.159-.388-2.128 1.02-4.191 3.13-4.583l65.2-12.128c2.11-.393 4.153 1.028 4.542 3.157.388 2.13-1.02 4.193-3.13 4.585zM123.808 175.808l-65.201 12.127c-2.109.392-4.154-1.029-4.543-3.159-.388-2.128 1.02-4.19 3.13-4.584l65.2-12.127c2.11-.392 4.153 1.029 4.542 3.159.388 2.129-1.02 4.192-3.128 4.584zM130.808 190.808l-65.202 12.127c-2.109.392-4.154-1.029-4.541-3.159-.39-2.128 1.018-4.19 3.128-4.584l65.2-12.127c2.11-.392 4.154 1.029 4.543 3.159.388 2.129-1.02 4.192-3.128 4.584zM134.808 210.808l-65.202 12.127c-2.109.392-4.154-1.029-4.541-3.159-.39-2.128 1.018-4.19 3.128-4.584l65.2-12.127c2.11-.392 4.154 1.029 4.543 3.159.388 2.128-1.02 4.192-3.128 4.584zM128.447 264.86l-58.322 11.066c-2.346.444-4.622-1.169-5.053-3.586-.434-2.415 1.133-4.758 3.48-5.203l58.322-11.063c2.348-.446 4.622 1.167 5.054 3.583.433 2.417-1.134 4.758-3.481 5.203zM134.447 280.86l-58.321 11.066c-2.348.444-4.623-1.169-5.054-3.586-.433-2.417 1.134-4.758 3.48-5.203l58.322-11.063c2.348-.446 4.622 1.167 5.054 3.583.433 2.417-1.134 4.758-3.481 5.203zM134.448 298.86l-58.322 11.066c-2.348.446-4.623-1.167-5.054-3.584-.433-2.417 1.134-4.759 3.48-5.204l58.322-11.064c2.348-.446 4.622 1.167 5.054 3.583.433 2.417-1.134 4.758-3.48 5.203zM139.448 314.86l-58.322 11.066c-2.348.446-4.623-1.167-5.054-3.584-.433-2.417 1.134-4.759 3.48-5.204l58.322-11.064c2.348-.446 4.622 1.167 5.054 3.583.433 2.417-1.134 4.758-3.48 5.203z"/>
        <g transform="translate(31 20)">
            <mask id="prefix__d" fill="#fff">
                <use xlink:href="#prefix__c"/>
            </mask>
            <path fill="#00B6B4" d="M223.54 376.314L12.306 321.21C3.539 318.92-1.732 309.995.596 301.373L78.491 12.68C80.817 4.06 89.896-1.123 98.664 1.164l211.23 55.107c8.77 2.287 14.04 11.212 11.714 19.835L243.71 364.799c-2.327 8.62-11.404 13.802-20.171 11.515z" mask="url(#prefix__d)"/>
        </g>
        <path fill="#E6E7E8" d="M249.442 390.449L51.2 337.464c-8.723-2.331-13.967-11.43-11.652-20.218L112.49 40.29c2.314-8.787 11.345-14.07 20.067-11.738l198.244 52.985c8.723 2.331 13.967 11.43 11.652 20.216l-72.943 276.96c-2.315 8.786-11.345 14.069-20.068 11.737z"/>
        <path fill="#007D91" d="M164.56 324.526l-36.172-33.761h18.688V255.8h34.966v34.965h18.689l-36.172 33.76zM164 229c-30.927 0-56 25.073-56 56 0 30.929 25.073 56 56 56 30.929 0 56-25.071 56-56 0-30.927-25.071-56-56-56z"/>
        <path fill="#6E46AE" d="M192.927 138L123 117.673 135.073 71 205 91.325z"/>
        <path fill="#D5D3E4" d="M280.927 214L211 193.673 223.073 147 293 167.325z"/>
        <path fill="#6E46AE" d="M292.861 120.877l-53.841-12.791c-2.168-.514-3.463-2.502-2.88-4.416.582-1.916 2.831-3.061 4.998-2.547l53.842 12.791c2.166.514 3.462 2.502 2.881 4.418-.583 1.914-2.832 3.06-5 2.545zM292.862 140.877l-53.841-12.791c-2.168-.514-3.464-2.502-2.882-4.418.583-1.914 2.833-3.06 5-2.545l53.842 12.791c2.166.514 3.462 2.502 2.88 4.418-.582 1.914-2.831 3.06-4.999 2.545zM179.861 162.877l-53.841-12.791c-2.166-.514-3.464-2.502-2.88-4.416.582-1.916 2.83-3.061 4.998-2.547l53.842 12.791c2.166.514 3.462 2.502 2.881 4.418-.583 1.914-2.832 3.06-5 2.545zM175.862 176.877l-53.841-12.791c-2.168-.514-3.464-2.502-2.882-4.418.584-1.914 2.833-3.06 5-2.545l53.842 12.791c2.166.514 3.462 2.502 2.88 4.418-.582 1.914-2.831 3.06-4.999 2.545zM260.215 235.892l-149.143-49.946c-2.109-.544-3.45-2.975-2.977-5.406.47-2.43 2.583-3.973 4.69-3.432l149.143 49.948c2.109.542 3.45 2.975 2.977 5.405-.47 2.43-2.583 3.972-4.69 3.43z"/>
    </g>
</svg>
