<?xml version="1.0" encoding="utf-8"?>
<!-- Generator: Adobe Illustrator 21.0.0, SVG Export Plug-In . SVG Version: 6.00 Build 0)  -->
<!DOCTYPE svg PUBLIC "-//W3C//DTD SVG 1.1//EN" "http://www.w3.org/Graphics/SVG/1.1/DTD/svg11.dtd">
<svg version="1.1" xmlns="http://www.w3.org/2000/svg" xmlns:xlink="http://www.w3.org/1999/xlink" x="0px" y="0px" width="1275px"
	 height="850px" viewBox="0 0 1275 850" style="enable-background:new 0 0 1275 850;" xml:space="preserve">
<style type="text/css">
	.st0{fill:none;}
	.st1{fill:#F7F5F0;}
	.st2{fill:#0F1941;}
	.st3{fill:#E74536;}
	.st4{fill:#FFB511;}
</style>
<g id="Laag_1">
</g>
<g id="Laag_2">
</g>
<g id="artwork">
	<rect class="st0" width="1275" height="850"/>
	<g>
		<path class="st1" d="M624.7,700.3c0,25.9-21.6,46.9-47.2,46.9H330.4c-26.3,0-47.2-21-47.2-46.9V196.5c0-25.9,20.9-46.9,47.2-46.9
			h247.1c25.6,0,47.2,21,47.2,46.9V700.3z"/>
		<path class="st2" d="M593.5,666H314.3c-1.5,0-2.7-1.2-2.7-2.8V202.1c0-1.5,1.2-2.8,2.7-2.8h279.1c1.5,0,2.7,1.2,2.7,2.8v461.1
			C596.2,664.8,595,666,593.5,666z"/>
		<path class="st2" d="M453.9,686.6c-11,0-19.9,8.9-19.9,19.9c0,11,8.9,19.9,19.9,19.9c11,0,19.9-8.9,19.9-19.9
			C473.8,695.6,464.9,686.6,453.9,686.6"/>
		<path class="st3" d="M567.7,555.9c0-35.8-29.3-64.8-65.5-64.8c-36.1,0-65.5,29-65.5,64.8s29.3,64.8,65.5,64.8
			c2.8,0,5.6-0.2,8.3-0.5l17.3,14.5c1.1,0.9,2.8,0.3,3-1.1l3.4-21.2C554.2,601.3,567.7,580.1,567.7,555.9z"/>
		<path class="st4" d="M476.1,291.9h-72.7c-34.9,0-63.3,28.3-63.3,63.2c0,32.6,24.9,59.4,56.3,62.9v24.2c0,2.6,2.9,4.2,5.1,2.8
			l43.9-26.7l0.8,0h29.9c34.9,0,63.2-28.3,63.2-63.2C539.3,320.2,511,291.9,476.1,291.9"/>
		<path class="st2" d="M900.8,112c-109,0-197.4,88.4-197.4,197.4c0,54.2,21.8,103.3,57.2,138.9l-8.2,59c-0.6,4.3,3.7,7.6,7.6,5.9
			l57.9-24.7c25.2,11.7,53.3,18.2,82.9,18.2c109,0,197.4-88.4,197.4-197.4S1009.8,112,900.8,112z"/>
	</g>
	<g>
	</g>
	<g>
	</g>
	<g>
	</g>
	<g>
	</g>
	<g>
	</g>
	<g>
	</g>
	<g>
	</g>
	<g>
	</g>
	<g>
	</g>
	<g>
	</g>
	<g>
	</g>
	<g>
	</g>
	<g>
	</g>
	<g>
	</g>
	<g>
	</g>
</g>
</svg>
