<?xml version="1.0" encoding="utf-8"?>
<!-- Generator: Adobe Illustrator 21.0.0, SVG Export Plug-In . SVG Version: 6.00 Build 0)  -->
<!DOCTYPE svg PUBLIC "-//W3C//DTD SVG 1.1//EN" "http://www.w3.org/Graphics/SVG/1.1/DTD/svg11.dtd">
<svg version="1.1" id="Laag_1" xmlns="http://www.w3.org/2000/svg" xmlns:xlink="http://www.w3.org/1999/xlink" x="0px" y="0px"
	 width="1275px" height="850px" viewBox="0 0 1275 850" style="enable-background:new 0 0 1275 850;" xml:space="preserve">
<style type="text/css">
	.st0{fill:none;}
	.st1{fill:#FFB511;}
	.st2{fill:#0F1941;}
	.st3{fill:#6BA5B4;}
</style>
<rect class="st0" width="1275" height="850"/>
<path class="st1" d="M646.7,55.4c-91.7,0-166.3,74.6-166.3,166.3v184.8c0,71.3-58,129.3-129.3,129.3s-129.3-58-129.3-129.3V0h-37
	v406.5c0,91.7,74.6,166.3,166.3,166.3s166.3-74.6,166.3-166.3V221.7c0-71.3,58-129.3,129.3-129.3c71.3,0,129.3,58,129.3,129.3v130.4
	c6.1-0.7,12.2-1,18.5-1h0c6.2,0,12.4,0.4,18.5,1V221.7C813,130,738.4,55.4,646.7,55.4z"/>
<path class="st2" d="M918.5,850c26.3-29.4,42.4-68.3,42.4-110.9V517.4c0-91.8-74.5-166.3-166.3-166.3h0
	c-91.8,0-166.3,74.5-166.3,166.3v221.7c0,42.6,16,81.4,42.4,110.9H918.5z"/>
<path class="st3" d="M776.1,535.9V462c0-10.2,8.3-18.5,18.5-18.5l0,0c10.2,0,18.5,8.3,18.5,18.5v73.9c0,10.2-8.3,18.5-18.5,18.5l0,0
	C784.4,554.3,776.1,546.1,776.1,535.9z"/>
<g>
</g>
<g>
</g>
<g>
</g>
<g>
</g>
<g>
</g>
<g>
</g>
<g>
</g>
<g>
</g>
<g>
</g>
<g>
</g>
<g>
</g>
<g>
</g>
<g>
</g>
<g>
</g>
<g>
</g>
</svg>
