<?xml version="1.0" encoding="utf-8"?>
<!-- Generator: Adobe Illustrator 21.0.0, SVG Export Plug-In . SVG Version: 6.00 Build 0)  -->
<!DOCTYPE svg PUBLIC "-//W3C//DTD SVG 1.1//EN" "http://www.w3.org/Graphics/SVG/1.1/DTD/svg11.dtd">
<svg version="1.1" id="Laag_1" xmlns="http://www.w3.org/2000/svg" xmlns:xlink="http://www.w3.org/1999/xlink" x="0px" y="0px"
	 width="1275px" height="850px" viewBox="0 0 1275 850" style="enable-background:new 0 0 1275 850;" xml:space="preserve">
<style type="text/css">
	.st0{fill:#F7F5F0;}
	.st1{fill:#0F1941;}
	.st2{fill:#FFB511;}
	.st3{fill:none;}
</style>
<path class="st0" d="M794.6,351.1L794.6,351.1c-91.8,0-166.3,74.5-166.3,166.3v221.7c0,91.8,74.5,166.3,166.3,166.3h0
	c91.8,0,166.3-74.5,166.3-166.3V517.4C960.9,425.5,886.4,351.1,794.6,351.1z"/>
<path class="st1" d="M776.1,535.9V462c0-10.2,8.3-18.5,18.5-18.5l0,0c10.2,0,18.5,8.3,18.5,18.5v73.9c0,10.2-8.3,18.5-18.5,18.5l0,0
	C784.4,554.3,776.1,546.1,776.1,535.9z"/>
<path class="st2" d="M776.1,221.7v130.4c6.1-0.7,12.2-1,18.5-1h0c6.2,0,12.4,0.4,18.5,1V221.7c0-91.7-74.6-166.3-166.3-166.3
	c-91.7,0-166.3,74.6-166.3,166.3v184.8c0,71.3-58,129.3-129.3,129.3s-129.3-58-129.3-129.3V0h-37v406.5
	c0,91.7,74.6,166.3,166.3,166.3s166.3-74.6,166.3-166.3V221.7c0-71.3,58-129.3,129.3-129.3C718.1,92.4,776.1,150.4,776.1,221.7z"/>
<rect class="st3" width="1275" height="850"/>
<g>
</g>
<g>
</g>
<g>
</g>
<g>
</g>
<g>
</g>
<g>
</g>
<g>
</g>
<g>
</g>
<g>
</g>
<g>
</g>
<g>
</g>
<g>
</g>
<g>
</g>
<g>
</g>
<g>
</g>
</svg>
