<?xml version="1.0" encoding="utf-8"?>
<!-- Generator: Adobe Illustrator 23.0.4, SVG Export Plug-In . SVG Version: 6.00 Build 0)  -->
<svg version="1.1" id="Laag_1" xmlns="http://www.w3.org/2000/svg" xmlns:xlink="http://www.w3.org/1999/xlink" x="0px" y="0px"
	 viewBox="0 0 220 45" style="enable-background:new 0 0 220 45;" xml:space="preserve">
<style type="text/css">
	.st0{fill:#888D8E;}
	.st1{fill:#D1110B;}
</style>
<path class="st0" d="M55.3,13.4h11.6l4.3,16.3h0.3c0.2-1.4,0.4-2.8,0.8-4.1l3.5-12.2h11.5l5.1,31.1H81.5l-1.5-17h-0.2
	c-0.2,1-0.4,2.1-0.7,3.1l-4.4,13.9h-6.6l-4-13.2c-0.3-1.3-0.6-2.5-0.7-3.9h-0.4c-0.1,1.2-0.2,2.5-0.3,3.7l-1.3,13.3H50.4"/>
<path class="st0" d="M109.1,33.3l-1.3-5.5c-0.3-1.3-0.5-2.7-0.7-4h-0.4l-2,9.5 M101.7,44.5h-12l10.8-31.1H113l11.1,31.1h-12l-1-3.9
	h-8.5L101.7,44.5z"/>
<path class="st0" d="M154.8,26.2c-0.1,5.1-0.1,9.3-3.7,13.3c-3.3,3.6-8.4,5.5-13.2,5.5c-9.5,0-17.1-5.9-17.1-15.8
	c0-10.1,7.4-16.2,17.2-16.2c5.4,0,12.8,2.7,15.2,8l-10.5,3.9c-0.8-1.6-2.5-2.4-4.3-2.4c-4,0-6.3,3.5-6.3,7.2c0,3.4,2.2,6.6,5.8,6.6
	c1.8,0,4.1-0.8,4.6-2.7h-5.2v-7.3"/>
<path class="st0" d="M155.6,13.4h10.8l10.1,17.2h0.3c-0.5-2.6-1-5.3-1-7.9v-9.3h10.8v31.1h-10.8L166,28.2h-0.3
	c0.4,2.2,0.7,4.2,0.7,6.2v10.1h-10.8"/>
<path class="st0" d="M205,33.3l-1.3-5.5c-0.3-1.3-0.5-2.7-0.7-4h-0.4l-2,9.5 M197.6,44.5h-12l10.8-31.1h12.5L220,44.5h-12l-1-3.9
	h-8.5L197.6,44.5z"/>
<polyline points="33.1,44.5 44.8,44.5 33.5,13.5 24.9,13.5 23.4,17.8 "/>
<path class="st1" d="M25.2,0.3c-3.1,0-5.7,2.5-5.7,5.7s2.5,5.7,5.7,5.7s5.7-2.5,5.7-5.7C30.8,2.9,28.3,0.3,25.2,0.3"/>
<polyline points="0,44.5 17.4,44.5 8.7,20.6 "/>
<polyline points="19.4,44.5 31.1,44.5 19.9,13.5 11.3,13.5 9.7,17.8 "/>
</svg>
