<?xml version="1.0" encoding="utf-8"?>
<!-- Generator: Adobe Illustrator 22.0.0, SVG Export Plug-In . SVG Version: 6.00 Build 0)  -->
<!DOCTYPE svg PUBLIC "-//W3C//DTD SVG 1.1//EN" "http://www.w3.org/Graphics/SVG/1.1/DTD/svg11.dtd">
<svg version="1.1" id="logo" xmlns="http://www.w3.org/2000/svg" xmlns:xlink="http://www.w3.org/1999/xlink" x="0px" y="0px"
	 width="841.9px" height="217.3px" viewBox="0 0 841.9 217.3" style="enable-background:new 0 0 841.9 217.3;" xml:space="preserve"
	>
<metadata><?xpacket begin="﻿" id="W5M0MpCehiHzreSzNTczkc9d"?>
<x:xmpmeta xmlns:x="adobe:ns:meta/" x:xmptk="Adobe XMP Core 5.6-c143 79.161210, 2017/08/11-10:28:36        ">
   <rdf:RDF xmlns:rdf="http://www.w3.org/1999/02/22-rdf-syntax-ns#">
      <rdf:Description rdf:about=""/>
   </rdf:RDF>
</x:xmpmeta>
                                                                                                    
                                                                                                    
                                                                                                    
                                                                                                    
                                                                                                    
                                                                                                    
                                                                                                    
                                                                                                    
                                                                                                    
                                                                                                    
                                                                                                    
                                                                                                    
                                                                                                    
                                                                                                    
                                                                                                    
                                                                                                    
                                                                                                    
                                                                                                    
                                                                                                    
                                                                                                    
                           
<?xpacket end="w"?></metadata>
<style type="text/css">
	.st0{fill:#FFFFFF;}
	.st1{fill:none;}
	.st2{fill:#0075BF;}
</style>
<g>
	<g>
		<g>
			<path class="st0" d="M131.5,101.9c0,0-23-23-23-23c-1.4-1.4-3.2-2.2-5.2-2.2H64.8v14.7H107c3.2,0,6.2,1.3,8.5,3.5
				c2.3,2.3,3.5,5.3,3.5,8.5v42.2h14.7v-38.6C133.7,105.1,132.9,103.2,131.5,101.9z"/>
		</g>
		<g>
			<path class="st0" d="M172.4,76.7c-2,0-3.9,0.8-5.2,2.2c0,0-23,23-23,23c-1.4,1.4-2.2,3.2-2.2,5.2v38.6h14.7v-42.2
				c0-6.6,5.4-12,12-12H211V76.7H172.4z"/>
		</g>
		<g>
			<path class="st0" d="M311.9,75c-7.1,0-14.4,5-17.8,12.2l-0.1,0.2h-0.3h-0.3H293v-0.4V76.7h-11.1v68.9h11.9v-31.3
				c0-17.6,7.6-28.9,19.4-28.9c2.5,0,4.8,0.4,6.7,1.1V75.9C317.4,75.4,315.5,75,311.9,75z"/>
		</g>
		<path class="st0" d="M674.7,112.4v0.4v6.2c0,5.5-1.7,10.1-5.1,13.5c-3.5,3.6-8.6,5.4-14.8,5.4c-3.7,0-7.6-1.6-10.2-4.1
			c-2.1-2.1-3.2-4.8-3.2-7.8c0-12.6,17.2-13.9,24.6-13.9c1.4,0,2.8,0.1,4.1,0.1c1.3,0.1,2.7,0.1,4.1,0.1H674.7z M679.8,81.7
			c-4.5-4.5-11.2-6.7-20.7-6.7c-7.8,0-15.3,2.1-22.5,6.3l0.6,10c5.3-4.2,12.8-6.8,19.8-6.8c6,0,10.4,1.4,13.2,4.2
			c3,3,4.4,7.6,4.4,14.5v0.4l-0.4,0c-5.1-0.3-8.7-0.3-13.6-0.3c-8.5,0-19.9,2.3-26.5,8.9c-3.7,3.7-5.5,8.2-5.5,13.6
			c0,6.3,1.8,11.3,5.4,14.9c4.2,4.2,11.1,6.5,19.7,6.5c12.5,0,19-7.3,21.2-10.4l0.1-0.2h0.2h0.3h0.4v0.4v8.5h10.6v-42.2
			C686.6,93.4,684.4,86.3,679.8,81.7z"/>
		<path class="st0" d="M364.3,112.4v0.4v6.2c0,5.5-1.7,10.1-5.1,13.5c-3.5,3.6-8.6,5.4-14.8,5.4c-3.7,0-7.6-1.6-10.2-4.1
			c-2.1-2.1-3.2-4.8-3.2-7.8c0-12.6,17.2-13.9,24.6-13.9c1.4,0,2.8,0.1,4.1,0.1c1.3,0.1,2.7,0.1,4.1,0.1H364.3z M369.4,81.7
			c-4.5-4.5-11.2-6.7-20.7-6.7c-7.8,0-15.3,2.1-22.5,6.3l0.6,10c5.3-4.2,12.8-6.8,19.8-6.8c6,0,10.4,1.4,13.2,4.2
			c3,3,4.4,7.6,4.4,14.5v0.4l-0.4,0c-5.1-0.3-8.7-0.3-13.6-0.3c-8.5,0-19.9,2.3-26.5,8.9c-3.7,3.7-5.5,8.2-5.5,13.6
			c0,6.3,1.8,11.3,5.4,14.9c4.2,4.2,11.1,6.5,19.7,6.5c12.5,0,19-7.3,21.2-10.4l0.1-0.2h0.2h0.3h0.4v0.4v8.5h10.6v-42.2
			C376.3,93.4,374,86.3,369.4,81.7z"/>
		<g>
			<path class="st0" d="M440.9,81.4c-4.3-4.3-10.4-6.4-18.2-6.4c-9.9,0-18.9,5-22.5,12.4l-0.1,0.2h-0.3h-0.3h-0.4v-0.4V76.7h-11.5
				v68.9h11.9v-31.9c0-8.9,1.7-16,5.2-21.1c3.7-5.4,9.3-8.2,16.5-8.2c10.9,0.7,15.2,7.8,15.2,25.4v35.8h11.9v-41.1
				C448.4,94.1,445.9,86.4,440.9,81.4z"/>
		</g>
		<g>
			<path class="st0" d="M557.3,105.9c-6.6-3-12.8-5.8-12.8-12.5c0-5.4,5-8.9,12.7-8.9c2.8,0,9.9,1.6,13.2,3.3l1-10.2
				c-5.3-1.6-10-2.6-15.5-2.6c-8,0-14.4,2.3-18.7,6.5c-3.6,3.6-5.5,8.5-5.5,14.5c0,10.6,9.2,15.1,17.3,19.1
				c6.6,3.2,12.9,6.3,12.9,12.3c0,2.7-0.9,5-2.6,6.7c-3.4,3.4-8.7,3.7-10.9,3.7c-3.4,0-10.4-1.5-15.6-4.7l-0.6,10.5
				c6.2,3.2,13.2,3.6,18.7,3.6c6.4,0,12.3-1.8,16.6-5.2c4.8-3.8,7.3-9.4,7.3-16.1C574.7,113.9,565.5,109.6,557.3,105.9z"/>
		</g>
		<g>
			<path class="st0" d="M616.4,137.9c-3,0-5.7-1.1-7.7-3.1c-2.3-2.3-3.6-5.7-3.6-9.8V86.6v-0.4h0.4h18v-9.5h-18h-0.4v-0.4V56.6
				l-11.9,3.8v15.8v0.4h-0.4h-15.3v9.5h15.3h0.4v0.4v40.9c0,6.3,1.7,11.1,5,14.5c3.5,3.5,8.9,5.3,16,5.3c4,0,8-1.1,10.5-1.8v-9.9
				C622.2,137.1,619.4,137.9,616.4,137.9z"/>
		</g>
		<path class="st0" d="M749.5,111.3c0,8.4-2.9,16.3-7.7,21.2c-3.6,3.6-8,5.4-13.2,5.4c-4.7,0-8.7-1.7-12.1-5.1
			c-5.9-6-7.8-15.5-7.6-21.8c-0.2-8.9,2.3-16.7,6.9-21.3c3.3-3.4,7.6-5.1,12.7-5.1c5.3,0,9.8,1.8,13.4,5.4
			C746.7,94.8,749.5,102.6,749.5,111.3z M749.5,43.9v41.8v0.4h-0.4h-0.3h-0.2l-0.1-0.2C744,78.7,736.3,75,725.7,75
			c-8.1,0-14.8,2.6-19.9,7.8c-6.3,6.3-9.7,15.9-9.7,27.1c0,12.5,3.8,23.4,10.3,29.9c5,5,11.4,7.5,19.2,7.5
			c11.8,0,19.8-5.8,23.4-11.2l0.1-0.2h0.2h0.3h0.4v0.4v9.3h11.4V43.9H749.5z"/>
		<path class="st0" d="M511.3,111.3c0,8.4-2.9,16.3-7.7,21.2c-3.6,3.6-8,5.4-13.2,5.4c-4.7,0-8.7-1.7-12.1-5.1
			c-5.9-6-7.8-15.5-7.6-21.8c-0.2-8.9,2.3-16.7,6.9-21.3c3.3-3.4,7.6-5.1,12.7-5.1c5.3,0,9.8,1.8,13.4,5.4
			C508.5,94.8,511.3,102.6,511.3,111.3z M511.3,43.9v41.8v0.4h-0.4h-0.3h-0.2l-0.1-0.2c-4.5-7.3-12.1-10.9-22.7-10.9
			c-8.1,0-14.8,2.6-19.9,7.8c-6.3,6.3-9.7,15.9-9.7,27.1c0,12.5,3.8,23.4,10.3,29.9c5,5,11.4,7.5,19.2,7.5
			c11.8,0,19.8-5.8,23.4-11.2l0.1-0.2h0.2h0.3h0.4v0.4v9.3h11.4V43.9H511.3z"/>
	</g>
	<g>
		<rect x="-0.5" y="-0.8" class="st1" width="842.3" height="217.6"/>
		<path class="st2" d="M118.6,146.1h15.5v-39c0-2.2-0.9-4.1-2.3-5.5l-23-23c-1.4-1.4-3.4-2.3-5.5-2.3h-39v15.5H107
			c6.4,0,11.6,5.2,11.6,11.6V146.1z"/>
		<path class="st2" d="M157.2,146.1h-15.5v-39c0-2.2,0.9-4.1,2.3-5.5l23-23c1.4-1.4,3.4-2.3,5.5-2.3h39v15.5h-42.6
			c-6.4,0-11.6,5.2-11.6,11.6V146.1z"/>
		<path class="st2" d="M281.4,76.3h12v10.8h0.3c3.4-7.2,10.8-12.4,18.2-12.4c3.8,0,5.7,0.4,8.5,1v11.5c-2.3-1-4.9-1.2-7.1-1.2
			c-11.5,0-19,10.9-19,28.5v31.7h-12.8V76.3z"/>
		<path class="st2" d="M674.2,118.9c0,10.5-6.7,18.5-19.4,18.5c-5.9,0-13-4-13-11.4c0-12.4,17.2-13.5,24.2-13.5
			c2.7,0,5.5,0.3,8.2,0.3V118.9z M636.8,92.2c5.2-4.5,13-7.2,20.2-7.2c12.8,0,17.2,6.3,17.2,18.3c-5.1-0.3-8.6-0.3-13.7-0.3
			c-13.2,0-32.4,5.5-32.4,23c0,15.3,10.5,21.8,25.6,21.8c11.7,0,18.6-6.4,21.6-10.6h0.3v8.9H687v-42.6c0-19.1-8-28.8-27.9-28.8
			c-8.9,0-16.5,2.7-22.9,6.5L636.8,92.2z"/>
		<path class="st2" d="M363.9,118.9c0,10.5-6.7,18.5-19.4,18.5c-5.9,0-13-4-13-11.4c0-12.4,17.2-13.5,24.2-13.5
			c2.7,0,5.5,0.3,8.2,0.3V118.9z M326.5,92.2c5.2-4.5,13-7.2,20.2-7.2c12.8,0,17.2,6.3,17.2,18.3c-5.1-0.3-8.6-0.3-13.7-0.3
			c-13.2,0-32.4,5.5-32.4,23c0,15.3,10.5,21.8,25.6,21.8c11.7,0,18.6-6.4,21.6-10.6h0.3v8.9h11.4v-42.6c0-19.1-8-28.8-27.9-28.8
			c-8.9,0-16.5,2.7-22.9,6.5L326.5,92.2z"/>
		<path class="st2" d="M387.2,76.3h12.4v10.9h0.3c3.8-7.9,13.2-12.6,22.9-12.6c18.1,0,26.1,11.1,26.1,29.9v41.5H436v-36.2
			c0-16.3-3.6-24.3-14.8-25c-14.7,0-21.2,11.8-21.2,28.9v32.3h-12.8V76.3z"/>
		<path class="st2" d="M532.4,132.5c5.1,3.3,12.3,4.9,16,4.9c5.9,0,13.1-2.5,13.1-10c0-12.8-30.2-11.7-30.2-31.3
			c0-14.5,10.8-21.5,24.6-21.5c6,0,10.9,1.2,16,2.8l-1.1,11.1c-2.9-1.8-10.5-3.6-13.5-3.6c-6.5,0-12.3,2.8-12.3,8.5
			c0,14.3,30.2,10.2,30.2,32.6c0,14.9-11.9,21.7-24.3,21.7c-6.5,0-13.3-0.7-19.1-3.8L532.4,132.5z"/>
		<path class="st2" d="M624,86.6h-18.5V125c0,8.1,4.9,12.5,10.8,12.5c4,0,6.8-1.2,8.8-2.5v10.9c-2.9,0.8-6.8,1.9-10.9,1.9
			c-13.2,0-21.4-6.2-21.4-20.2V86.6H577V76.3h15.7V60.2l12.8-4.1v20.2H624V86.6z"/>
		<path class="st2" d="M709.3,110.9c-0.3-12.8,5.2-26,19.1-26c13.9,0,20.6,13.3,20.6,26.4c0,11.7-6,26.1-20.5,26.1
			C714.8,137.5,709.1,121.9,709.3,110.9z M749.6,146.1h12.2V43.5h-12.8v42.3h-0.3c-4-6.4-10.9-11.1-23.1-11.1
			c-20.2,0-30.1,16.5-30.1,35.3c0,19.2,8.9,37.9,29.9,37.9c12.4,0,20.4-6.2,23.8-11.4h0.3V146.1z"/>
		<path class="st2" d="M471.2,110.9c-0.3-12.8,5.2-26,19.1-26c13.9,0,20.6,13.3,20.6,26.4c0,11.7-6,26.1-20.5,26.1
			C476.6,137.5,470.9,121.9,471.2,110.9z M511.5,146.1h12.2V43.5h-12.8v42.3h-0.3c-4-6.4-10.9-11.1-23.1-11.1
			c-20.2,0-30.1,16.5-30.1,35.3c0,19.2,8.9,37.9,29.9,37.9c12.4,0,20.4-6.2,23.8-11.4h0.3V146.1z"/>
	</g>
</g>
</svg>
