<?xml version="1.0" encoding="UTF-8"?>
<svg width="153px" height="148px" viewBox="0 0 153 148" version="1.1" xmlns="http://www.w3.org/2000/svg" xmlns:xlink="http://www.w3.org/1999/xlink">
    <!-- Generator: Sketch 52.4 (67378) - http://www.bohemiancoding.com/sketch -->
    <title>illustration-hand-1b</title>
    <desc>Created with Sketch.</desc>
    <g id="illustration-hand-1a" stroke="none" stroke-width="1" fill="none" fill-rule="evenodd">
        <path d="M138.456012,56.736402 L98.3795906,16.5488716 C90.1188441,24.7888456 89.8828227,38.0198896 97.6951287,46.542377 L110.039044,58.9494236 L108.504906,60.4797045 L53.7479572,5.86044812 C49.9244117,2.04651729 43.7170507,2.04651729 39.9171073,5.86044812 C36.0935618,9.67437896 36.0935618,15.8661309 39.9171073,19.6565189 C40.1059244,19.8448612 82.2829359,61.9158143 82.2829359,61.9158143 L80.7251952,63.4696379 L62.2447251,45.1062673 L62.2683272,45.0827245 L59.1292435,41.9515343 L59.1056414,41.9750771 C59.1056414,41.9750771 23.0415823,5.97816204 22.9235716,5.86044812 C19.1000261,2.04651729 12.8926651,2.04651729 9.06911958,5.86044812 C5.24557404,9.67437896 5.24557404,15.8661309 9.06911958,19.6800617 C9.13992598,19.75069 66.8235389,77.3363371 66.8235389,77.3363371 L65.2894002,78.866618 L16.787017,30.4626563 C12.9398694,26.6251827 6.73250842,26.6251827 2.88536075,30.4626563 C-0.961786917,34.3001299 -0.961786917,40.4918818 2.88536075,44.3293554 L51.3877439,92.7097743 L49.8772074,94.2165124 C49.8772074,94.2165124 29.6029752,74.0168047 29.5321688,73.9461763 C25.7086233,70.1322455 19.5012623,70.1322455 15.6777168,73.9461763 C11.8541713,77.7601072 11.8541713,83.9518591 15.6777168,87.7657899 C15.7249211,87.8128755 53.4883338,125.481328 53.4883338,125.481328 L60.0025225,132.073307 C81.2680442,153.308898 115.774363,153.308898 137.063486,132.073307 C157.833363,111.379201 158.305406,78.0426206 138.456012,56.736402" id="shape" fill="#0F1941" fill-rule="nonzero"></path>
        <path d="M113.212601,104 C105.998102,104 100.149594,98.1823271 100.149594,91.0058638 C100.149594,83.8294005 105.998102,78.0117276 113.212601,78.0117276 C120.427101,78.0117276 126.275609,83.8294005 126.275609,91.0058638 C126.275609,98.1823271 120.427101,104 113.212601,104 Z M87.0630073,78.0117276 C79.8485076,78.0117276 74,72.1940546 74,65.0175913 C74,57.8411281 79.8485076,52.0234551 87.0630073,52.0234551 C94.2775071,52.0234551 100.126015,57.8411281 100.126015,65.0175913 C100.126015,72.1940546 94.2775071,78.0117276 87.0630073,78.0117276 Z M121.936993,25.9882724 C114.722493,25.9882724 108.873985,20.1705995 108.873985,12.9941362 C108.873985,5.81767295 114.722493,8.81072992e-13 121.936993,8.81072992e-13 C129.151492,8.81072992e-13 135,5.81767295 135,12.9941362 C135,20.1705995 129.151492,25.9882724 121.936993,25.9882724 Z" id="shape" fill="#F7F5F0" fill-rule="nonzero"></path>
    </g>
</svg>