<?xml version="1.0" encoding="UTF-8"?>
<svg width="372px" height="361px" viewBox="0 0 372 361" version="1.1" xmlns="http://www.w3.org/2000/svg" xmlns:xlink="http://www.w3.org/1999/xlink">
    <!-- Generator: Sketch 52.5 (67469) - http://www.bohemiancoding.com/sketch -->
    <title>illustration</title>
    <desc>Created with Sketch.</desc>
    <g id="headers" stroke="none" stroke-width="1" fill="none" fill-rule="evenodd">
        <g id="truth-desktop-header---illustration-title-copy-cta---dark-blue" transform="translate(-944.000000, -184.000000)" fill-rule="nonzero">
            <g id="1-atoms/illustrations/for-dark-blue-bg" transform="translate(764.000000, 0.000000)">
                <path d="M515.938235,322.917647 L418.719412,225.183529 C398.680196,245.222745 398.107647,277.4 417.05902,298.126275 L447.003333,328.299608 L443.281765,332.021176 L310.450392,199.189804 C301.175098,189.91451 286.117059,189.91451 276.89902,199.189804 C267.623725,208.465098 267.623725,223.523137 276.89902,232.741176 C277.357059,233.199216 379.671569,335.513725 379.671569,335.513725 L375.892745,339.292549 L331.062157,294.633725 L331.119412,294.576471 L323.50451,286.961569 L323.447255,287.018824 C323.447255,287.018824 235.961765,199.476078 235.67549,199.189804 C226.400196,189.91451 211.342157,189.91451 202.066863,199.189804 C192.791569,208.465098 192.791569,223.523137 202.066863,232.798431 C202.238627,232.970196 342.169608,373.015686 342.169608,373.015686 L338.448039,376.737255 L220.789216,259.021176 C211.456667,249.688627 196.398627,249.688627 187.066078,259.021176 C177.733529,268.353725 177.733529,283.411765 187.066078,292.744314 L304.724902,410.403137 L301.060588,414.067451 C301.060588,414.067451 251.878627,364.942745 251.706863,364.77098 C242.431569,355.495686 227.373529,355.495686 218.098235,364.77098 C208.822941,374.046275 208.822941,389.104314 218.098235,398.379608 C218.212745,398.494118 309.820588,490.101961 309.820588,490.101961 L325.622941,506.133333 C377.209608,557.777255 460.916275,557.777255 512.560196,506.133333 C562.94451,455.806275 564.089608,374.733333 515.938235,322.917647" id="shape" fill="#FFB511"></path>
                <path d="M455.348235,438.801569 C437.830196,438.801569 423.62902,424.600392 423.62902,407.082353 C423.62902,389.564314 437.830196,375.363137 455.348235,375.363137 C472.866274,375.363137 487.067451,389.564314 487.067451,407.082353 C487.067451,424.600392 472.866274,438.801569 455.348235,438.801569 Z M391.852549,375.363137 C374.33451,375.363137 360.133333,361.161961 360.133333,343.643922 C360.133333,326.125882 374.33451,311.924706 391.852549,311.924706 C409.370588,311.924706 423.571765,326.125882 423.571765,343.643922 C423.571765,361.161961 409.370588,375.363137 391.852549,375.363137 Z M476.532549,248.371765 C459.01451,248.371765 444.813333,234.170588 444.813333,216.652549 C444.813333,199.13451 459.01451,184.933333 476.532549,184.933333 C494.050588,184.933333 508.251765,199.13451 508.251765,216.652549 C508.251765,234.170588 494.050588,248.371765 476.532549,248.371765 Z" id="shape" fill="#F7F5F0"></path>
            </g>
        </g>
    </g>
</svg>