<?xml version="1.0" encoding="utf-8"?>
<!-- Generator: Adobe Illustrator 21.0.0, SVG Export Plug-In . SVG Version: 6.00 Build 0)  -->
<!DOCTYPE svg PUBLIC "-//W3C//DTD SVG 1.1//EN" "http://www.w3.org/Graphics/SVG/1.1/DTD/svg11.dtd">
<svg version="1.1" id="Laag_1" xmlns="http://www.w3.org/2000/svg" xmlns:xlink="http://www.w3.org/1999/xlink" x="0px" y="0px"
	 width="1275px" height="850px" viewBox="0 0 1275 850" style="enable-background:new 0 0 1275 850;" xml:space="preserve">
<style type="text/css">
	.st0{fill:none;}
	.st1{fill:#F7F5F0;}
	.st2{fill:#0F1941;}
	.st3{fill:#FFB511;}
	.st4{fill:#E74536;}
</style>
<rect x="1" y="0" class="st0" width="1275" height="850"/>
<g>
	<circle class="st1" cx="661.2" cy="224.4" r="46.6"/>
	<g>
		<path class="st2" d="M654.3,779.3L654.3,779.3l0.4,0C654.6,779.3,654.4,779.3,654.3,779.3z"/>
		<path class="st2" d="M837.7,432.3h-185v0l-7.7,0h-37.6v0l-169.9,0.1c0,0,0,0-0.1,0c-20.2,0-39.4-8.3-54-23.3
			c-14.9-15.3-23.1-35.6-23.2-57.1h0v-0.5h0c0-21.6,8.2-42,23.1-57.3c14.6-15,33.8-23.3,54-23.3h208.2h22.1h124.2c0,0,0.1,0,0.1,0
			c45.6,0,88.5-18.3,120.8-51.5c32-32.9,49.6-76.4,49.7-122.5V0h-92.8v96.8c0,21.8-8.3,42.3-23.4,57.8c-14.7,15.1-34,23.4-54.3,23.4
			c0,0,0,0-0.1,0H667.6h-22.1H437.3c-93.8,0.1-170,78-169.9,173.7h0c0,46,17.6,89.4,49.5,122.1c32.2,33.1,75,51.3,120.5,51.3
			c0,0,0.1,0,0.1,0l207.6-0.1h192.6c20.2,0,39.4,8.3,54,23.3c14.9,15.4,23.2,35.8,23.1,57.5s-8.3,42.1-23.2,57.5
			c-14.6,15-33.8,23.3-54,23.3c0,0,0,0-0.1,0l-174.7-0.1c23.8,2.1,42.5,22.1,42.5,46.4c0,24.4-18.8,44.4-42.7,46.4l174.8,0.1
			c0,0,0.1,0,0.1,0c45.5,0,88.3-18.2,120.5-51.3c31.9-32.8,49.5-76.2,49.5-122.1C1007.7,510.3,931.5,432.3,837.7,432.3z"/>
		<path class="st2" d="M654.4,686.6c0.1,0,0.2,0,0.3,0L654.4,686.6L654.4,686.6z"/>
	</g>
	<circle class="st3" cx="661.2" cy="478.8" r="46.6"/>
	<circle class="st4" cx="661.2" cy="224.4" r="46.6"/>
	<circle class="st4" cx="658.7" cy="732.9" r="46.6"/>
</g>
<g>
</g>
<g>
</g>
<g>
</g>
<g>
</g>
<g>
</g>
<g>
</g>
<g>
</g>
<g>
</g>
<g>
</g>
<g>
</g>
<g>
</g>
<g>
</g>
<g>
</g>
<g>
</g>
<g>
</g>
</svg>
