<?xml version="1.0" encoding="UTF-8"?>
<svg width="328px" height="157px" viewBox="0 0 328 157" version="1.1" xmlns="http://www.w3.org/2000/svg" xmlns:xlink="http://www.w3.org/1999/xlink">
    <!-- Generator: Sketch 52.4 (67378) - http://www.bohemiancoding.com/sketch -->
    <title>coffee</title>
    <desc>Created with Sketch.</desc>
    <g id="headers-my-randstad" stroke="none" stroke-width="1" fill="none" fill-rule="evenodd">
        <g id="truth-desktop---small-header-+-section-1" transform="translate(-1092.000000, -130.000000)">
            <g id="header" transform="translate(180.000000, 130.000000)">
                <g id="coffee" transform="translate(912.000000, 0.000000)">
                    <path d="M107.231905,79 L93,79 C93,67.1422244 102.565075,57.4616142 114.367143,57.4616142 L206.932381,57.4616142 C210.866404,57.4616142 214.067619,54.2347441 214.067619,50.2691929 C214.067619,46.3036417 210.866404,43.0767717 206.932381,43.0767717 L142.830954,43.0767717 C131.067454,43.0767717 121.463811,33.4350394 121.463811,21.5383858 C121.463811,9.68061024 131.028886,0 142.830954,0 L328,0 L328,14.3459646 L142.830954,14.3459646 C138.896931,14.3459646 135.695716,17.5728346 135.695716,21.5383858 C135.695716,25.503937 138.896931,28.7308071 142.830954,28.7308071 L206.932381,28.7308071 C218.695881,28.7308071 228.299524,38.3725394 228.299524,50.2691929 C228.299524,62.1658465 218.734449,71.8075787 206.932381,71.8075787 L114.328574,71.8075787 C110.43312,71.8075787 107.231905,75.0344488 107.231905,79 Z" id="Shape" fill="#2175D9" fill-rule="nonzero"></path>
                    <circle id="Oval" cx="100" cy="86" r="71"></circle>
                    <circle id="Oval" cx="71" cy="86" r="71"></circle>
                    <path d="M167.44956,78 L3.55044008,78 C1.58226134,78 0,79.5955665 0,81.5802956 L0,85.1605911 C0,124.855172 31.915369,157 71.2403521,157 L99.7596479,157 C139.123223,157 171,124.816256 171,85.1605911 L171,81.5802956 C171,79.5955665 169.417739,78 167.44956,78 Z" id="Shape" fill="#FFB511" fill-rule="nonzero"></path>
                    <path d="M170.883946,80.878385 C170.535783,79.244707 169.104449,78 167.402321,78 L142.411992,78 C142.411992,78 142.411992,82.7454456 142.411992,85.1959626 C142.411992,124.871 110.419729,157 71,157 L99.5880077,157 C139.046422,157 171,124.832102 171,85.1959626 L171,81.6174298 C170.922631,81.3840473 170.922631,81.1117676 170.883946,80.878385 Z" id="Shape" fill="#E74536" fill-rule="nonzero"></path>
                </g>
            </g>
        </g>
    </g>
</svg>