<?xml version="1.0" encoding="UTF-8"?>
<svg width="324px" height="248px" viewBox="0 0 324 248" version="1.1" xmlns="http://www.w3.org/2000/svg" xmlns:xlink="http://www.w3.org/1999/xlink">
    <!-- Generator: Sketch 52.4 (67378) - http://www.bohemiancoding.com/sketch -->
    <title>illustration</title>
    <desc>Created with Sketch.</desc>
    <g id="headers-my-randstad" stroke="none" stroke-width="1" fill="none" fill-rule="evenodd">
        <g id="truth-desktop---big-header-+-section-1" transform="translate(-1098.000000, -200.000000)">
            <g id="header" transform="translate(180.000000, 130.000000)">
                <g id="illustration" transform="translate(918.000000, 70.000000)">
                    <circle id="Oval" fill="#E74536" cx="80.5" cy="90.5" r="18.5"></circle>
                    <path d="M208.555995,173.634429 C204.121161,171.01955 198.736006,171.376125 194.736735,174.030623 L174.344418,147.802595 L139.222115,101.447924 C137.598649,99.2688581 134.31212,99.2688581 132.688654,101.408304 L96.9724004,147.723356 C95.3093376,149.862803 92.0624054,149.862803 90.4389394,147.723356 L80.0645952,134.13391 C78.4015324,131.994464 75.1546002,131.954844 73.5311341,134.13391 L38.7652021,179.379239 C30.4498881,165.710554 26.0150539,149.981661 26.0150539,133.539619 C26.0150539,109.886851 35.2014961,87.7 51.9113176,70.9806228 C68.6211392,54.2612457 90.8349067,45.0695502 114.43456,45.0695502 C120.453263,45.0695502 126.43237,45.6638408 132.25309,46.8524221 C139.301309,48.2787197 146.151543,43.7621107 147.616623,36.7098616 C149.042105,29.6576125 144.528077,22.8034602 137.479859,21.3375433 C129.956479,19.7923875 122.19552,19 114.43456,19 C98.9918338,19 83.9846718,22.0110727 69.8882347,27.9935986 C56.2669583,33.7780277 44.0315677,42.0188581 33.4988366,52.5179931 C22.9661054,63.017128 14.7299849,75.2595156 8.98845851,88.9282007 C3.00935175,103.072318 0,118.048443 0,133.5 C0,148.951557 3.00935175,163.967301 8.98845851,178.071799 C14.7695816,191.700865 23.0057022,203.943253 33.4988366,214.482007 C43.9919709,224.981142 56.2273616,233.261592 69.8882347,239.006401 C84.0242685,244.988927 98.9918338,248 114.43456,248 C134.747684,248 154.744035,242.611765 172.206194,232.350346 C189.113999,222.445502 203.329227,208.261765 213.22841,191.304671 C216.831713,185.242907 214.772683,177.239792 208.555995,173.634429 Z" id="Shape" fill="#2175D9" fill-rule="nonzero"></path>
                    <path d="M318.745196,200.492806 L272.503287,154.356115 C276.508804,148.658273 279.919442,142.564748 282.655884,136.115108 C287.771842,124.046763 290.389308,111.18705 290.389308,97.971223 C290.389308,84.7553957 287.8115,71.9352518 282.655884,59.8273381 C277.698561,48.1546763 270.639333,37.7086331 261.636835,28.6870504 C252.634336,19.705036 242.124811,12.6223022 230.425529,7.71582734 C218.329661,2.61151079 205.440621,0 192.194654,0 C178.948687,0 166.099306,2.61151079 153.963779,7.71582734 C142.264497,12.6618705 131.794631,19.705036 122.752473,28.6870504 C113.749975,37.6690647 106.651088,48.1546763 101.733424,59.8273381 C96.6174665,71.8956835 94,84.7553957 94,97.971223 C94,111.18705 96.577808,124.007194 101.733424,136.115108 C106.690747,147.78777 113.749975,158.233813 122.752473,167.255396 C131.754972,176.23741 142.264497,183.320144 153.963779,188.226619 C166.059647,193.330935 178.948687,195.942446 192.194654,195.942446 C205.440621,195.942446 218.290002,193.370504 230.425529,188.226619 C236.215682,185.773381 241.688567,182.805755 246.844183,179.363309 L293.363702,225.776978 C296.853657,229.258993 301.454053,231 306.01479,231 C310.615186,231 315.175923,229.258993 318.665879,225.776978 C325.764765,218.773381 325.764765,207.456835 318.745196,200.492806 Z M192.234313,160.133094 C157.85032,160.133094 129.891019,132.23741 129.891019,97.9316547 C129.891019,63.6258993 157.85032,35.7302158 192.234313,35.7302158 C226.618305,35.7302158 254.577607,63.6258993 254.577607,97.9316547 C254.577607,132.23741 226.618305,160.133094 192.234313,160.133094 Z" id="Shape" fill="#FFB511" fill-rule="nonzero"></path>
                </g>
            </g>
        </g>
    </g>
</svg>