<svg id="attachment" viewBox="0 0 20 20" xmlns="http://www.w3.org/2000/svg">
  <path d="M16.8364,3.1802 C16.0824,2.4192 15.0754,2.0002 14.0014,2.0002 L14.0004,2.0002 C12.9274,2.0002 11.9204,2.4192 11.1674,3.1802 L5.5014,8.8962 C5.5004,8.8962 5.5004,8.8972 5.5004,8.8982 L3.7324,10.6822 C2.7604,11.6612 2.7604,13.2552 3.7324,14.2342 C4.2034,14.7102 4.8324,14.9722 5.5034,14.9722 C6.1754,14.9722 6.8044,14.7102 7.2754,14.2342 L11.8794,9.5902 C12.2684,9.1972 12.2664,8.5642 11.8734,8.1752 C11.4814,7.7872 10.8484,7.7892 10.4594,8.1812 L5.8564,12.8262 C5.7304,12.9532 5.5814,12.9722 5.5034,12.9722 C5.4264,12.9722 5.2774,12.9532 5.1514,12.8262 C4.9544,12.6272 4.9544,12.2902 5.1514,12.0912 L9.8504,7.3502 L12.5884,4.5882 C12.9634,4.2092 13.4654,4.0002 14.0014,4.0002 C14.5374,4.0002 15.0404,4.2092 15.4164,4.5882 C16.2024,5.3822 16.2024,6.6732 15.4164,7.4672 L14.3544,8.5392 L13.7074,9.1912 L9.7504,13.1832 C9.7504,13.1832 9.7504,13.1842 9.7494,13.1842 L7.9804,14.9702 C6.6644,16.2982 4.3464,16.2992 3.0264,14.9702 C1.6544,13.5852 1.6544,11.3322 3.0264,9.9472 L7.6304,5.3032 C8.0194,4.9102 8.0174,4.2772 7.6244,3.8882 C7.2324,3.5002 6.5994,3.5022 6.2104,3.8942 L1.6074,8.5392 C-0.5356,10.7002 -0.5356,14.2172 1.6074,16.3782 C2.6444,17.4242 4.0274,18.0002 5.5034,18.0002 L5.5044,18.0002 C6.9804,17.9992 8.3634,17.4232 9.3994,16.3782 L13.2394,12.5042 L16.8374,8.8752 C18.3924,7.3052 18.3924,4.7502 16.8364,3.1802"/>
</svg>
