<svg id="close-circle" viewBox="0 0 20 20" xmlns="http://www.w3.org/2000/svg">
  <path d="M10,18 C14.411,18 18,14.411 18,10 C18,5.589 14.411,2 10,2 C5.589,2 2,5.589 2,10 C2,14.411 5.589,18 10,18 Z M10,0 C15.514,0 20,4.486 20,10 C20,15.514 15.514,20 10,20 C4.486,20 0,15.514 0,10 C0,4.486 4.486,0 10,0 Z M13.707,6.293 C14.098,6.684 14.098,7.316 13.707,7.707 L11.414,10 L13.707,12.293 C14.098,12.684 14.098,13.316 13.707,13.707 C13.512,13.902 13.256,14 13,14 C12.744,14 12.488,13.902 12.293,13.707 L10,11.414 L7.707,13.707 C7.512,13.902 7.256,14 7,14 C6.744,14 6.488,13.902 6.293,13.707 C5.902,13.316 5.902,12.684 6.293,12.293 L8.586,10 L6.293,7.707 C5.902,7.316 5.902,6.684 6.293,6.293 C6.684,5.902 7.316,5.902 7.707,6.293 L10,8.586 L12.293,6.293 C12.684,5.902 13.316,5.902 13.707,6.293 Z"/>
</svg>
