<svg id="consultant" viewBox="0 0 20 20" xmlns="http://www.w3.org/2000/svg">
  <path d="M8,2 C9.654,2 11,3.346 11,5 C11,6.654 9.654,8 8,8 C6.346,8 5,6.654 5,5 C5,3.346 6.346,2 8,2 M10.338,9.395 C11.915,8.553 13,6.912 13,5 C13,2.239 10.762,0 8,0 C5.238,0 3,2.239 3,5 C3,6.912 4.085,8.553 5.662,9.395 C2.389,10.522 0,13.953 0,18 C0,18.552 0.447,19 1,19 C1.553,19 2,18.552 2,18 C2,14.46 4.266,11.533 7.193,11.071 C7.189,11.076 7.188,11.083 7.184,11.089 C7.146,11.144 7.119,11.202 7.093,11.264 C7.067,11.326 7.047,11.386 7.033,11.452 C7.027,11.48 7.01,11.504 7.007,11.534 L6.507,15.886 C6.505,15.905 6.513,15.922 6.512,15.941 C6.507,16.012 6.519,16.079 6.529,16.149 C6.538,16.21 6.544,16.27 6.563,16.327 C6.583,16.383 6.616,16.433 6.646,16.486 C6.682,16.548 6.715,16.608 6.763,16.661 C6.775,16.675 6.779,16.693 6.793,16.707 L7.293,17.207 C7.488,17.402 7.744,17.5 8,17.5 C8.256,17.5 8.512,17.402 8.707,17.207 L9.207,16.707 C9.221,16.693 9.225,16.675 9.237,16.661 C9.285,16.608 9.318,16.548 9.354,16.486 C9.384,16.433 9.417,16.383 9.437,16.327 C9.456,16.27 9.462,16.21 9.471,16.149 C9.481,16.079 9.493,16.012 9.488,15.941 C9.487,15.922 9.495,15.905 9.493,15.886 L8.993,11.534 C8.99,11.505 8.973,11.482 8.967,11.454 C8.953,11.384 8.932,11.321 8.903,11.258 C8.879,11.201 8.854,11.147 8.82,11.096 C8.814,11.088 8.812,11.079 8.807,11.071 C11.734,11.533 14,14.46 14,18 C14,18.552 14.447,19 15,19 C15.553,19 16,18.552 16,18 C16,13.953 13.611,10.522 10.338,9.395"/>
</svg>
