<svg id="download" viewBox="0 0 20 20" xmlns="http://www.w3.org/2000/svg">
  <path d="M12.2913,11.2925 C12.6823,10.9015 13.3143,10.9015 13.7053,11.2925 C14.0963,11.6835 14.0963,12.3155 13.7053,12.7065 L10.7053,15.7065 C10.5103,15.9015 10.2543,15.9995 9.9983,15.9995 C9.7423,15.9995 9.4863,15.9015 9.2913,15.7065 L6.2913,12.7065 C5.9003,12.3155 5.9003,11.6835 6.2913,11.2925 C6.6823,10.9015 7.3143,10.9015 7.7053,11.2925 L8.9983,12.5855 L8.9983,7.9995 C8.9983,7.4475 9.4453,6.9995 9.9983,6.9995 C10.5513,6.9995 10.9983,7.4475 10.9983,7.9995 L10.9983,12.5855 L12.2913,11.2925 Z M14.009,3.522 C17.273,3.435 19.996,6.118 19.996,9.394 C19.996,12.079 18.575,14.209 16.287,14.951 C16.185,14.984 16.08,15 15.979,15 C15.557,15 15.164,14.731 15.028,14.308 C14.857,13.783 15.145,13.219 15.67,13.048 C17.127,12.576 17.996,11.209 17.996,9.394 C17.996,7.258 16.258,5.521 14.121,5.521 C13.917,5.521 13.718,5.541 13.525,5.572 L12.686,5.709 L12.415,4.903 C11.843,3.193 10.223,2 8.476,2 C6.183,2 4.318,3.893 4.318,6.22 C4.318,6.471 4.344,6.735 4.397,7.005 L4.559,7.837 L3.765,8.133 C2.709,8.527 2,9.541 2,10.657 C2,12.04 2.723,12.852 4.09,13.006 C4.639,13.067 5.034,13.563 4.973,14.111 C4.91,14.66 4.425,15.058 3.867,14.993 C1.482,14.726 -4.06785716e-13,13.064 -4.06785716e-13,10.657 C-4.06785716e-13,8.984 0.91,7.443 2.331,6.609 C2.322,6.478 2.318,6.348 2.318,6.22 C2.318,2.79 5.08,-5.68434189e-14 8.476,-5.68434189e-14 C10.846,-5.68434189e-14 12.981,1.386 14.009,3.522 Z"/>
</svg>
