<svg id="download-30" viewBox="0 0 30 30" xmlns="http://www.w3.org/2000/svg">
  <path d="M19.293,17.2672 C19.684,16.8762 20.316,16.8762 20.707,17.2672 C21.098,17.6582 21.098,18.2902 20.707,18.6812 L15.707,23.6812 C15.512,23.8762 15.256,23.9742 15,23.9742 C14.744,23.9742 14.488,23.8762 14.293,23.6812 L9.293,18.6812 C8.902,18.2902 8.902,17.6582 9.293,17.2672 C9.684,16.8762 10.316,16.8762 10.707,17.2672 L14,20.5602 L14,10.9742 C14,10.4222 14.447,9.9742 15,9.9742 C15.553,9.9742 16,10.4222 16,10.9742 L16,20.5602 L19.293,17.2672 Z M21.415,5.377 C26.148,5.377 30,9.228 30,13.962 C30,17.643 26.936,21.748 23.309,22.925 C23.206,22.959 23.102,22.975 23,22.975 C22.578,22.975 22.186,22.706 22.049,22.283 C21.878,21.758 22.166,21.193 22.691,21.023 C25.47,20.121 28,16.755 28,13.962 C28,10.331 25.046,7.377 21.415,7.377 C21.102,7.377 20.767,7.406 20.391,7.465 L19.555,7.598 L19.286,6.795 C18.326,3.927 15.651,2 12.631,2 C8.759,2 5.608,5.15 5.608,9.023 C5.608,9.456 5.652,9.903 5.739,10.353 L5.898,11.184 L5.106,11.479 C3.248,12.172 2,13.959 2,15.925 C2,18.457 3.845,20.725 6.112,20.981 C6.661,21.043 7.056,21.538 6.994,22.086 C6.933,22.634 6.436,23.026 5.888,22.968 C2.586,22.596 0,19.502 0,15.925 C0,13.402 1.44,11.089 3.657,9.939 C3.625,9.63 3.608,9.324 3.608,9.023 C3.608,4.047 7.656,5.68434189e-14 12.631,5.68434189e-14 C16.237,5.68434189e-14 19.46,2.137 20.888,5.396 C21.067,5.383 21.243,5.377 21.415,5.377 Z"/>
</svg>
