<svg id="heart" viewBox="0 0 20 20" xmlns="http://www.w3.org/2000/svg">
  <path d="M9.9964,16.9999 C10.5474,17.0169 11.0484,16.6809 11.2964,16.4489 C11.6834,16.1339 11.9354,15.8769 12.2044,15.6059 L12.4894,15.3209 C13.2014,14.6009 13.9214,13.8309 14.6184,13.0429 C15.4474,12.1049 16.0584,11.3589 16.5974,10.6229 C16.8654,10.2459 17.1784,9.8069 17.4414,9.3229 C17.5584,9.1259 17.6624,8.8979 17.7804,8.5929 C17.8494,8.4049 17.9024,8.1859 17.9514,7.8819 C18.1034,6.8629 17.9004,5.8179 17.3794,4.9549 C16.8394,4.0439 15.9754,3.3799 15.0064,3.1259 C14.0244,2.8589 12.9004,3.0349 12.0584,3.5849 C11.6204,3.8659 11.2474,4.2189 10.9444,4.6379 L10.0014,6.0589 L9.0314,4.6069 C8.7464,4.2139 8.3644,3.8539 7.9384,3.5839 C7.0864,3.0319 5.9614,2.8579 4.9914,3.1259 C4.0144,3.3859 3.1524,4.0519 2.6184,4.9569 C2.0964,5.8269 1.8944,6.8709 2.0504,7.9029 C2.0994,8.2009 2.1504,8.4129 2.2264,8.6189 C2.3314,8.8909 2.4394,9.1249 2.5444,9.2999 C2.8224,9.8079 3.1364,10.2479 3.4134,10.6369 C3.9434,11.3599 4.5544,12.1069 5.3844,13.0469 C6.1054,13.8589 6.8054,14.6069 7.5204,15.3309 L7.7774,15.5869 C8.0444,15.8559 8.3084,16.1219 8.6484,16.4039 L8.8104,16.5289 C8.9724,16.6569 9.0894,16.7489 9.2774,16.8389 C9.4974,16.9439 9.7384,17.0369 9.9964,16.9999 M10.0744,19.0009 C10.0364,19.0009 9.9984,18.9999 9.9604,18.9989 C9.4494,18.9689 8.9094,18.8779 8.4204,18.6459 C8.0244,18.4579 7.7714,18.2569 7.5674,18.0959 L7.4174,17.9789 C6.9694,17.6109 6.6594,17.2989 6.3594,16.9979 L6.1074,16.7459 C5.3574,15.9879 4.6344,15.2139 3.8874,14.3739 C3.0134,13.3829 2.3674,12.5929 1.7924,11.8089 C1.4754,11.3639 1.1254,10.8719 0.8064,10.2899 C0.6594,10.0429 0.5074,9.7179 0.3554,9.3249 C0.1974,8.8959 0.1244,8.5229 0.0734,8.2129 C-0.1506,6.7089 0.1424,5.1939 0.8994,3.9329 C1.6944,2.5869 2.9974,1.5869 4.4694,1.1959 C5.9854,0.7759 7.6904,1.0399 9.0174,1.8999 C9.3714,2.1249 9.7004,2.3859 10.0004,2.6809 C10.2984,2.3879 10.6224,2.1299 10.9724,1.9049 C12.2904,1.0439 13.9934,0.7769 15.5214,1.1939 C16.9854,1.5769 18.2924,2.5749 19.0954,3.9269 C19.8524,5.1829 20.1494,6.6979 19.9284,8.1899 C19.8554,8.6309 19.7714,8.9669 19.6534,9.2949 C19.4844,9.7299 19.3374,10.0469 19.1804,10.3119 C18.8764,10.8699 18.5114,11.3819 18.2184,11.7939 C17.6334,12.5919 16.9874,13.3829 16.1164,14.3679 C15.3934,15.1849 14.6484,15.9809 13.9014,16.7369 L13.6264,17.0129 C13.3314,17.3119 13.0254,17.6199 12.6054,17.9579 C12.0854,18.4479 11.1164,19.0009 10.0744,19.0009"/>
</svg>
