<svg id="heart-filled" viewBox="0 0 20 20" xmlns="http://www.w3.org/2000/svg">
  <path d="M10.0744,18.0009 C10.0364,18.0009 9.9984,17.9999 9.9604,17.9989 C9.4494,17.9689 8.9094,17.8779 8.4204,17.6459 C8.0244,17.4579 7.7714,17.2569 7.5674,17.0959 L7.4174,16.9789 C6.9694,16.6109 6.6594,16.2989 6.3594,15.9979 L6.1074,15.7459 C5.3574,14.9879 4.6344,14.2139 3.8874,13.3739 C3.0134,12.3829 2.3674,11.5929 1.7924,10.8089 C1.4754,10.3639 1.1254,9.8719 0.8064,9.2899 C0.6594,9.0429 0.5074,8.7179 0.3554,8.3249 C0.1974,7.8959 0.1244,7.5229 0.0734,7.2129 C-0.1506,5.7089 0.1424,4.1939 0.8994,2.9329 C1.6944,1.5869 2.9974,0.5869 4.4694,0.1959 C5.9854,-0.2241 7.6904,0.0399 9.0174,0.8999 C9.3714,1.1249 9.7004,1.3859 10.0004,1.6809 C10.2984,1.3879 10.6224,1.1299 10.9724,0.9049 C12.2904,0.0439 13.9934,-0.2231 15.5214,0.1939 C16.9854,0.5769 18.2924,1.5749 19.0954,2.9269 C19.8524,4.1829 20.1494,5.6979 19.9284,7.1899 C19.8554,7.6309 19.7714,7.9669 19.6534,8.2949 C19.4844,8.7299 19.3374,9.0469 19.1804,9.3119 C18.8764,9.8699 18.5114,10.3819 18.2184,10.7939 C17.6334,11.5919 16.9874,12.3829 16.1164,13.3679 C15.3934,14.1849 14.6484,14.9809 13.9014,15.7369 L13.6264,16.0129 C13.3314,16.3119 13.0254,16.6199 12.6054,16.9579 C12.0854,17.4479 11.1164,18.0009 10.0744,18.0009"/>
</svg>
