<svg id="redo" viewBox="0 0 20 20" xmlns="http://www.w3.org/2000/svg">
  <path d="M17,10.5 C16.447,10.5 16,10.948 16,11.5 C16,15.084 13.084,18 9.5,18 C5.916,18 3,15.084 3,11.5 C3,7.916 5.916,5 9.5,5 L10.586,5 L9.293,6.293 C8.902,6.684 8.902,7.316 9.293,7.707 C9.488,7.902 9.744,8 10,8 C10.256,8 10.512,7.902 10.707,7.707 L13.706,4.708 C13.799,4.616 13.872,4.505 13.923,4.382 C14.024,4.138 14.024,3.862 13.923,3.618 C13.872,3.495 13.799,3.384 13.706,3.292 L10.707,0.293 C10.316,-0.098 9.684,-0.098 9.293,0.293 C8.902,0.684 8.902,1.316 9.293,1.707 L10.586,3 L9.5,3 C4.813,3 1,6.813 1,11.5 C1,16.187 4.813,20 9.5,20 C14.187,20 18,16.187 18,11.5 C18,10.948 17.553,10.5 17,10.5"/>
</svg>
