<svg id="trash" viewBox="0 0 20 20" xmlns="http://www.w3.org/2000/svg">
  <path d="M17,3 C17.553,3 18,3.447 18,4 C18,4.553 17.553,5 17,5 L17,19 C17,19.553 16.553,20 16,20 L4,20 C3.447,20 3,19.553 3,19 L3,5 C2.447,5 2,4.553 2,4 C2,3.447 2.447,3 3,3 L6,3 L6,1 C6,0.447 6.447,0 7,0 L13,0 C13.553,0 14,0.447 14,1 L14,3 L17,3 Z M5,18 L15,18 L15,5 L5,5 L5,18 Z M8,3 L12,3 L12,2 L8,2 L8,3 Z"/>
  <path d="M8 16C8.553 16 9 15.553 9 15L9 8C9 7.447 8.553 7 8 7 7.447 7 7 7.447 7 8L7 15C7 15.553 7.447 16 8 16zM12 16C12.553 16 13 15.553 13 15L13 8C13 7.447 12.553 7 12 7 11.447 7 11 7.447 11 8L11 15C11 15.553 11.447 16 12 16z"/>
</svg>
