<svg id="undo" viewBox="0 0 20 20" xmlns="http://www.w3.org/2000/svg">
  <path d="M9.5,3 L8.414,3 L9.707,1.707 C10.098,1.316 10.098,0.684 9.707,0.293 C9.316,-0.098 8.684,-0.098 8.293,0.293 L5.294,3.292 C5.201,3.385 5.128,3.495 5.077,3.618 C4.977,3.862 4.977,4.138 5.077,4.382 C5.128,4.505 5.201,4.615 5.294,4.708 L8.293,7.707 C8.488,7.902 8.744,8 9,8 C9.256,8 9.512,7.902 9.707,7.707 C10.098,7.316 10.098,6.684 9.707,6.293 L8.414,5 L9.5,5 C13.084,5 16,7.916 16,11.5 C16,15.084 13.084,18 9.5,18 C5.916,18 3,15.084 3,11.5 C3,10.948 2.553,10.5 2,10.5 C1.447,10.5 1,10.948 1,11.5 C1,16.187 4.813,20 9.5,20 C14.187,20 18,16.187 18,11.5 C18,6.813 14.187,3 9.5,3"/>
</svg>
