<svg id="view-small" viewBox="0 0 20 20" xmlns="http://www.w3.org/2000/svg">
  <path d="M18,5 L2,5 C1.447,5 1,4.552 1,4 C1,3.448 1.447,3 2,3 L18,3 C18.553,3 19,3.448 19,4 C19,4.552 18.553,5 18,5 Z M18,9 L2,9 C1.447,9 1,8.552 1,8 C1,7.448 1.447,7 2,7 L18,7 C18.553,7 19,7.448 19,8 C19,8.552 18.553,9 18,9 Z M18,13 L2,13 C1.447,13 1,12.552 1,12 C1,11.448 1.447,11 2,11 L18,11 C18.553,11 19,11.448 19,12 C19,12.552 18.553,13 18,13 Z M18,17 L2,17 C1.447,17 1,16.552 1,16 C1,15.448 1.447,15 2,15 L18,15 C18.553,15 19,15.448 19,16 C19,16.552 18.553,17 18,17 Z"/>
</svg>
