<?xml version="1.0" encoding="utf-8"?>
<!-- Generator: Adobe Illustrator 21.0.0, SVG Export Plug-In . SVG Version: 6.00 Build 0)  -->
<!DOCTYPE svg PUBLIC "-//W3C//DTD SVG 1.1//EN" "http://www.w3.org/Graphics/SVG/1.1/DTD/svg11.dtd">
<svg version="1.1" id="Laag_1" xmlns="http://www.w3.org/2000/svg" xmlns:xlink="http://www.w3.org/1999/xlink" x="0px" y="0px"
	 width="1275px" height="850px" viewBox="0 0 1275 850" style="enable-background:new 0 0 1275 850;" xml:space="preserve">
<style type="text/css">
	.st0{fill:#FFB511;}
	.st1{fill:#F7F5F0;}
	.st2{fill:none;}
</style>
<g>
	<path class="st0" d="M918.1,370.4L748.3,199.7c-35,35-36,91.2-2.9,127.4l52.3,52.7l-6.5,6.5l-232-232c-16.2-16.2-42.5-16.2-58.6,0
		c-16.2,16.2-16.2,42.5,0,58.6c0.8,0.8,179.5,179.5,179.5,179.5l-6.6,6.6L595.2,321l0.1-0.1L582,307.6l-0.1,0.1
		c0,0-152.8-152.9-153.3-153.4c-16.2-16.2-42.5-16.2-58.7,0c-16.2,16.2-16.2,42.5,0,58.7c0.3,0.3,244.7,244.9,244.7,244.9l-6.5,6.5
		L402.6,258.8l0,0c-16.3-16.3-42.6-16.3-58.9,0c-16.3,16.3-16.3,42.6,0,58.9l205.5,205.5l-6.4,6.4c0,0-85.9-85.8-86.2-86.1
		c-16.2-16.2-42.5-16.2-58.7,0s-16.2,42.5,0,58.7c0.2,0.2,160.2,160.2,160.2,160.2l27.6,28c90.1,90.2,236.3,90.2,326.5,0
		C1000.2,602.5,1002.2,460.9,918.1,370.4"/>
</g>
<circle class="st1" cx="812.7" cy="517.8" r="55.4"/>
<circle class="st1" cx="701.8" cy="407" r="55.4"/>
<circle class="st1" cx="849.7" cy="185.2" r="55.4"/>
<rect class="st2" width="1275" height="850"/>
<g>
</g>
<g>
</g>
<g>
</g>
<g>
</g>
<g>
</g>
<g>
</g>
<g>
</g>
<g>
</g>
<g>
</g>
<g>
</g>
<g>
</g>
<g>
</g>
<g>
</g>
<g>
</g>
<g>
</g>
</svg>
