<?xml version="1.0" encoding="UTF-8"?>
<svg width="265px" height="230px" viewBox="0 0 265 230" version="1.1" xmlns="http://www.w3.org/2000/svg" xmlns:xlink="http://www.w3.org/1999/xlink">
    <!-- Generator: Sketch 53.1 (72631) - https://sketchapp.com -->
    <title>illustration</title>
    <desc>Created with Sketch.</desc>
    <g id="carousels" stroke="none" stroke-width="1" fill="none" fill-rule="evenodd">
        <g id="viewport-L---quote---exhausted---off-white" transform="translate(-218.000000, -130.000000)" fill="#2175D9" fill-rule="nonzero">
            <g id="carousel---quote" transform="translate(-0.000000, 0.000000)">
                <g id="illustration" transform="translate(218.000000, 130.000000)">
                    <path d="M133.999184,32.8242869 C133.985413,17.3833239 123.001823,4.03602805 107.608242,0.753924171 C92.2146605,-2.52817971 76.5668294,5.14096428 70.0102424,19.1810447 L70.0102424,19.1810447 L5.07531809,159.18985 C-3.39282269,176.226333 -1.13492651,196.514235 10.8815336,211.360511 C22.8979938,226.206786 42.5404479,232.976656 61.3924134,228.769336 C80.2443789,224.562016 94.9601837,210.124183 99.2343368,191.642222 L99.2343368,191.642222 L133.019417,40.9373799 L133.019417,40.9373799 C133.689514,38.2835741 134.018653,35.558095 133.999184,32.8242869 L133.999184,32.8242869 Z" id="shape"></path>
                    <path d="M264.999931,32.804439 C264.986167,17.3728127 254.008203,4.03358759 238.622507,0.753468296 C223.236811,-2.526651 207.596996,5.1378557 201.043767,19.1694465 L136.142105,159.093593 C127.598427,176.144046 129.830275,196.491257 141.876472,211.372388 C153.922668,226.253518 173.632069,233.011178 192.516518,228.735077 C211.400966,224.458976 226.088183,209.912716 230.252892,191.360869 L264.020666,40.7471531 C264.676593,38.148669 265.005461,35.481256 264.999931,32.804439 Z" id="shape"></path>
                </g>
            </g>
        </g>
    </g>
</svg>