<?xml version="1.0" encoding="utf-8"?>
<!-- Generator: Adobe Illustrator 22.0.0, SVG Export Plug-In . SVG Version: 6.00 Build 0)  -->
<!DOCTYPE svg PUBLIC "-//W3C//DTD SVG 1.1//EN" "http://www.w3.org/Graphics/SVG/1.1/DTD/svg11.dtd">
<svg version="1.1" xmlns="http://www.w3.org/2000/svg" xmlns:xlink="http://www.w3.org/1999/xlink" x="0px" y="0px" width="1275px"
	 height="850px" viewBox="0 0 1275 850" style="enable-background:new 0 0 1275 850;" xml:space="preserve">
<metadata><?xpacket begin="﻿" id="W5M0MpCehiHzreSzNTczkc9d"?>
<x:xmpmeta xmlns:x="adobe:ns:meta/" x:xmptk="Adobe XMP Core 5.6-c143 79.161210, 2017/08/11-10:28:36        ">
   <rdf:RDF xmlns:rdf="http://www.w3.org/1999/02/22-rdf-syntax-ns#">
      <rdf:Description rdf:about=""/>
   </rdf:RDF>
</x:xmpmeta>
                                                                                                    
                                                                                                    
                                                                                                    
                                                                                                    
                                                                                                    
                                                                                                    
                                                                                                    
                                                                                                    
                                                                                                    
                                                                                                    
                                                                                                    
                                                                                                    
                                                                                                    
                                                                                                    
                                                                                                    
                                                                                                    
                                                                                                    
                                                                                                    
                                                                                                    
                                                                                                    
                           
<?xpacket end="w"?></metadata>
<style type="text/css">
	.st0{fill:none;}
	.st1{fill:#0F1941;}
	.st2{fill:#F7F5F0;}
	.st3{fill:none;stroke:#0071CE;stroke-width:42.6491;stroke-linecap:round;stroke-linejoin:round;stroke-miterlimit:10;}
	.st4{fill:#FFB511;}
</style>
<g id="Laag_1">
	<rect y="1" class="st0" width="1275" height="850"/>
	<g>
		<g>
			<path class="st1" d="M804,702.2H471c-18.9,0-34.3-15.4-34.3-34.3v-210c0-18.9,15.4-34.3,34.3-34.3h333
				c18.9,0,34.3,15.4,34.3,34.3v210C838.3,686.7,822.9,702.2,804,702.2z"/>
		</g>
		<path class="st2" d="M799.8,648.8l-99.6-84.2l99.8-83.2c6.9-5.8,7.9-16.1,2.1-23c-5.8-6.9-16.1-7.9-23-2.1L642.6,570.2L496.6,456
			c-7.1-5.6-17.4-4.3-22.9,2.8c-5.6,7.1-4.3,17.4,2.8,22.9l107.1,83.8l-108.4,84.4c-6.9,5.8-7.7,16.1-1.9,23
			c3.2,3.8,7.8,5.8,12.5,5.8c3.7,0,7.5-1.3,10.5-3.9L609.8,586l23,18c3,2.3,6.5,3.5,10.1,3.5c3.7,0,7.4-1.3,10.5-3.8l21.5-17.9
			l103.9,87.9c3.1,2.6,6.8,3.9,10.5,3.9c4.6,0,9.2-2,12.5-5.8C807.6,664.9,806.7,654.6,799.8,648.8z"/>
		<g>
			<path class="st3" d="M475.2,663"/>
		</g>
		<g>
			<path class="st3" d="M529.4,568.2"/>
		</g>
		<path class="st4" d="M732.1,266.8c-10.9-10.3-28.1-9.8-38.5,1.1l-26,27.5V175c0-15-12.2-27.2-27.2-27.2c-15,0-27.2,12.2-27.2,27.2
			v120.1l-26.5-27.1c-10.5-10.7-27.7-10.9-38.5-0.4c-10.7,10.5-10.9,27.8-0.4,38.5L622,382c5.1,5.2,12.1,8.4,19.4,8.4
			c0.1,0,0.2,0,0.2,0c7.4-1.1,14.4-3.4,19.5-8.8l72-76.5C743.5,294.3,743,277.1,732.1,266.8z"/>
	</g>
</g>
<g id="Laag_2">
</g>
<g id="Layer_1">
</g>
<g id="Layer_4">
</g>
<g id="Layer_5">
</g>
</svg>
