<?xml version="1.0" encoding="utf-8"?>
<!-- Generator: Adobe Illustrator 21.0.0, SVG Export Plug-In . SVG Version: 6.00 Build 0)  -->
<!DOCTYPE svg PUBLIC "-//W3C//DTD SVG 1.1//EN" "http://www.w3.org/Graphics/SVG/1.1/DTD/svg11.dtd">
<svg version="1.1" id="Laag_1" xmlns="http://www.w3.org/2000/svg" xmlns:xlink="http://www.w3.org/1999/xlink" x="0px" y="0px"
	 width="1275px" height="850px" viewBox="0 0 1275 850" style="enable-background:new 0 0 1275 850;" xml:space="preserve">
<style type="text/css">
	.st0{fill:#FFB511;}
	.st1{fill:#E74536;}
	.st2{fill:#F7F5F0;}
	.st3{fill:none;}
</style>
<path class="st0" d="M880.9,321.2L505.2,696.8c-7.2,7.2-18.9,7.2-26.1,0L374.2,591.9c-7.2-7.2-7.2-18.9,0-26.1l375.6-375.6
	c7.2-7.2,18.9-7.2,26.1,0L880.9,295C888.1,302.3,888.1,314,880.9,321.2z"/>
<g>
	<path class="st1" d="M496.5,443.5l131-131L505.2,190.1c-7.2-7.2-18.9-7.2-26.1,0L374.2,295c-7.2,7.2-7.2,18.9,0,26.1L496.5,443.5z"
		/>
	<path class="st1" d="M758.6,443.5l-131,131l122.3,122.3c7.2,7.2,18.9,7.2,26.1,0l104.9-104.9c7.2-7.2,7.2-18.9,0-26.1L758.6,443.5z
		"/>
</g>
<ellipse transform="matrix(0.7071 -0.7071 0.7071 0.7071 -148.5637 528.2577)" class="st2" cx="563.4" cy="443.5" rx="9.2" ry="9.2"/>
<ellipse transform="matrix(0.7071 -0.7071 0.7071 0.7071 -83.8736 555.2099)" class="st2" cx="628.3" cy="378.8" rx="9.2" ry="9.2"/>
<ellipse transform="matrix(0.7071 -0.7071 0.7071 0.7071 -175.2814 593.0723)" class="st2" cx="628.3" cy="508.1" rx="9.2" ry="9.2"/>
<ellipse transform="matrix(0.7071 -0.7071 0.7071 0.7071 -110.6528 619.7827)" class="st2" cx="692.8" cy="443.5" rx="9.2" ry="9.2"/>
<rect class="st3" width="1275" height="850"/>
<g>
</g>
<g>
</g>
<g>
</g>
<g>
</g>
<g>
</g>
<g>
</g>
<g>
</g>
<g>
</g>
<g>
</g>
<g>
</g>
<g>
</g>
<g>
</g>
<g>
</g>
<g>
</g>
<g>
</g>
</svg>
