<?xml version="1.0" encoding="utf-8"?>
<!-- Generator: Adobe Illustrator 21.0.0, SVG Export Plug-In . SVG Version: 6.00 Build 0)  -->
<!DOCTYPE svg PUBLIC "-//W3C//DTD SVG 1.1//EN" "http://www.w3.org/Graphics/SVG/1.1/DTD/svg11.dtd">
<svg version="1.1" id="Laag_1" xmlns="http://www.w3.org/2000/svg" xmlns:xlink="http://www.w3.org/1999/xlink" x="0px" y="0px"
	 width="1275px" height="850px" viewBox="0 0 1275 850" style="enable-background:new 0 0 1275 850;" xml:space="preserve">
<style type="text/css">
	.st0{fill:none;}
	.st1{fill:#FFB511;}
	.st2{fill:#E74536;}
	.st3{fill:#F7F5F0;}
</style>
<rect class="st0" width="1275" height="850"/>
<g>
	<path class="st1" d="M496.4,443.5l131-131L505.2,190.1c-7.2-7.2-18.9-7.2-26.1,0L374.1,295c-7.2,7.2-7.2,18.9,0,26.1L496.4,443.5z"
		/>
	<path class="st1" d="M758.5,443.5l-131,131l122.3,122.3c7.2,7.2,18.9,7.2,26.1,0l104.9-104.9c7.2-7.2,7.2-18.9,0-26.1L758.5,443.5z
		"/>
</g>
<path class="st2" d="M880.8,321.2L505.2,696.8c-7.2,7.2-18.9,7.2-26.1,0L374.1,591.9c-7.2-7.2-7.2-18.9,0-26.1l375.6-375.6
	c7.2-7.2,18.9-7.2,26.1,0L880.8,295C888,302.3,888,314,880.8,321.2z"/>
<ellipse transform="matrix(0.7071 -0.7071 0.7071 0.7071 -148.5764 528.2269)" class="st3" cx="563.3" cy="443.5" rx="9.2" ry="9.2"/>
<ellipse transform="matrix(0.7071 -0.7071 0.7071 0.7071 -83.8864 555.1791)" class="st3" cx="628.2" cy="378.8" rx="9.2" ry="9.2"/>
<ellipse transform="matrix(0.7071 -0.7071 0.7071 0.7071 -175.2942 593.0415)" class="st3" cx="628.2" cy="508.1" rx="9.2" ry="9.2"/>
<ellipse transform="matrix(0.7071 -0.7071 0.7071 0.7071 -110.6656 619.7519)" class="st3" cx="692.8" cy="443.5" rx="9.2" ry="9.2"/>
<g>
</g>
<g>
</g>
<g>
</g>
<g>
</g>
<g>
</g>
<g>
</g>
<g>
</g>
<g>
</g>
<g>
</g>
<g>
</g>
<g>
</g>
<g>
</g>
<g>
</g>
<g>
</g>
<g>
</g>
</svg>
