<svg xmlns="http://www.w3.org/2000/svg" xmlns:xlink="http://www.w3.org/1999/xlink" width="282" height="380" viewBox="0 0 282 380">
    <defs>
        <path id="prefix__a" d="M0 0L182 0 182 211 0 211z"/>
        <path id="prefix__c" d="M0 0L125 0 125 182 0 182z"/>
        <path id="prefix__e" d="M0 0L147 0 147 293 0 293z"/>
    </defs>
    <g fill="none" fill-rule="evenodd">
        <g transform="translate(0 -9) translate(100 178)">
            <mask id="prefix__b" fill="#fff">
                <use xlink:href="#prefix__a"/>
            </mask>
            <path fill="#D5D3E4" d="M160.127 208.002c-8.252 1.808-16.256 2.712-24.038 2.712-9.963 0-23.282-1.96-39.917-5.91-16.656-3.96-28.952-5.906-36.946-5.906-13.544 0-27.347 4.025-41.423 12.102L0 177.319c12.529-7.523 21.534-15.524 27.027-24.023 5.49-8.486 8.234-16.577 8.234-24.281 0-.991-.714-4.459-1.576-8.452H0v-30.14h25.993c-4.44-10.822-6.686-22.291-6.686-33.366 0-10.113 3.29-19.774 9.89-28.954 6.61-9.176 15.939-16.171 28.024-20.945C69.309 2.38 82.504 0 96.839 0c21.84 0 39.25 4.612 52.219 13.831 12.98 9.241 20.915 22.486 23.78 39.743l-45.078 5.577c-2.122-9.932-5.94-17.075-11.477-21.448-5.551-4.355-12.485-6.54-20.81-6.54-8.874 0-16.245 2.489-22.127 7.444-5.871 4.962-8.812 11.216-8.812 18.717 0 3.907.804 9.043 2.427 15.448 1.562 6.24 3.455 12.421 5.719 17.633h48.652v30.14H80.55c.302 2.036.455 4.734.455 6.647 0 7.328-1.668 14.11-4.99 20.313-3.335 6.21-10.15 14.381-20.476 24.494 6.097-2.594 13.756-3.903 22.98-3.903 3.88 0 7.356.195 10.479.557 1.547.195 6.097 1.071 13.635 2.666 13.436 2.85 22.565 4.297 27.464 4.297 8.645 0 19.958-2.594 33.943-7.806L182 200.981c-6.312 2.861-13.606 5.212-21.873 7.021z" mask="url(#prefix__b)"/>
        </g>
        <g transform="translate(0 -9) translate(99)">
            <mask id="prefix__d" fill="#fff">
                <use xlink:href="#prefix__c"/>
            </mask>
            <path fill="#F0F0F0" d="M90.337 37.209c12.275 0 21.611 3.155 28.001 9.473L125 15.795C115.659 11.27 104.673 9 92.034 9c-23.197 0-41.898 7.499-56.125 22.517-9.412 9.967-15.703 22.339-18.858 37.121H3.609L0 85.926h14.79c-.157 2.598-.228 5.615-.228 9.027 0 2.012.038 3.901.116 5.69H3.616L.008 117.918h16.716c3.078 15.094 9.448 27.686 19.084 37.801C49.946 170.579 68.027 178 90.002 178c13.031 0 24.436-2.41 34.214-7.241v-34.107c-8.573 8.769-20.097 13.154-34.547 13.154-12.039 0-21.832-4.385-29.367-13.154-3.908-4.54-6.803-10.779-8.692-18.734h51.502l3.609-17.275H49.233c-.143-2.834-.221-5.542-.221-8.14 0-2.679.038-4.871.119-6.577h60.746l3.609-17.288H51.39c1.807-7.346 4.844-13.492 9.143-18.385 7.591-8.692 17.526-13.044 29.804-13.044z" mask="url(#prefix__d)"/>
        </g>
        <g transform="translate(0 -9) translate(0 73)">
            <mask id="prefix__f" fill="#fff">
                <use xlink:href="#prefix__e"/>
            </mask>
            <path fill="#AA50A0" d="M53.551 293h40.012v-36.543C125.839 248.2 147 223.175 147 192.173c0-40.973-31.11-58.764-58.219-69.687-30.921-12.667-36.149-19.394-36.149-29.687 0-9.485 6.966-19.61 26.511-19.61 19.982 0 32.567 7.114 37.944 10.152l9.557 5.403 3.872-10.118 8.453-22.086 2.75-7.178-6.733-3.909c-11.672-6.777-24.631-10.859-39.395-12.38V0H55.918v35.526C24.628 43.428 4.844 66.804 4.844 96.82c0 37.422 31.203 54.562 61.723 66.391 28.378 11.383 32.304 21.784 32.304 31.307 0 14.137-12.415 23.63-30.892 23.63-15.269 0-31.118-4.679-43.491-12.827l-10.006-6.593-4.027 11.134-8.118 22.415L0 238.748l5.685 4.02c11.67 8.242 29.743 14.155 47.866 15.916V293z" mask="url(#prefix__f)"/>
        </g>
    </g>
</svg>
