<?xml version="1.0" encoding="utf-8"?>
<!-- Generator: Adobe Illustrator 22.0.0, SVG Export Plug-In . SVG Version: 6.00 Build 0)  -->
<!DOCTYPE svg PUBLIC "-//W3C//DTD SVG 1.1//EN" "http://www.w3.org/Graphics/SVG/1.1/DTD/svg11.dtd">
<svg version="1.1" id="Laag_1" xmlns="http://www.w3.org/2000/svg" xmlns:xlink="http://www.w3.org/1999/xlink" x="0px" y="0px"
	 width="1275px" height="850px" viewBox="0 0 1275 850" style="enable-background:new 0 0 1275 850;" xml:space="preserve">
<metadata><?xpacket begin="﻿" id="W5M0MpCehiHzreSzNTczkc9d"?>
<x:xmpmeta xmlns:x="adobe:ns:meta/" x:xmptk="Adobe XMP Core 5.6-c143 79.161210, 2017/08/11-10:28:36        ">
   <rdf:RDF xmlns:rdf="http://www.w3.org/1999/02/22-rdf-syntax-ns#">
      <rdf:Description rdf:about=""/>
   </rdf:RDF>
</x:xmpmeta>
                                                                                                    
                                                                                                    
                                                                                                    
                                                                                                    
                                                                                                    
                                                                                                    
                                                                                                    
                                                                                                    
                                                                                                    
                                                                                                    
                                                                                                    
                                                                                                    
                                                                                                    
                                                                                                    
                                                                                                    
                                                                                                    
                                                                                                    
                                                                                                    
                                                                                                    
                                                                                                    
                           
<?xpacket end="w"?></metadata>
<style type="text/css">
	.st0{fill:none;}
	.st1{fill:#FFB511;}
	.st2{fill:#0F1941;}
</style>
<g>
	<rect class="st0" width="1275" height="850"/>
</g>
<g>
	<path class="st1" d="M823.5,408C766.9,408,721,453.9,721,510.5c0,11.2,1.1,22.2,5.1,32.1c13,31.8,35.7,54.3,91,107.9
		c3.6,3.5,9.3,3.5,12.9,0c41.6-40.1,80.1-78,90.7-107.2c3.7-10.2,5.4-21.4,5.4-32.9C926.1,453.9,880.2,408,823.5,408z M825.7,549.9
		c-24.9,1.3-45.3-19.2-44-44c1.1-21.3,18.4-38.6,39.7-39.7c24.9-1.3,45.3,19.2,44,44C864.3,531.5,847,548.8,825.7,549.9z"/>
	<path class="st2" d="M572.2,158c-123.3,0-223.3,100-223.3,223.3c0,24.4,2.4,48.4,11.1,69.8c28.3,69.4,77.8,118.3,198.1,235.1
		c7.8,7.6,20.3,7.6,28.1,0.1c90.7-87.4,174.4-169.8,197.5-233.4c8.1-22.3,11.7-46.5,11.7-71.6C795.4,258,695.5,158,572.2,158z
		 M576.9,467.1c-54.1,2.7-98.6-41.7-95.9-95.9c2.3-46.4,40-84,86.4-86.4c54.1-2.7,98.6,41.7,95.9,95.9
		C660.9,427,623.3,464.7,576.9,467.1z"/>
</g>
</svg>
