<?xml version="1.0" encoding="UTF-8"?>
<svg width="1275px" height="850px" viewBox="0 0 1275 850" version="1.1" xmlns="http://www.w3.org/2000/svg" xmlns:xlink="http://www.w3.org/1999/xlink">
    <!-- Generator: Sketch 53.2 (72643) - https://sketchapp.com -->
    <title>Artboard</title>
    <desc>Created with Sketch.</desc>
    <g id="Artboard" stroke="none" stroke-width="1" fill="none" fill-rule="evenodd">
        <g id="Eye_illustration_UseBackgroundYellow_RGB">
            <rect id="Rectangle" x="0" y="0" width="1275" height="850"></rect>
            <g id="Group" transform="translate(221.000000, 167.000000)" fill-rule="nonzero">
                <path d="M838.4,261.4 C838.4,261.4 838.4,261.4 838.4,261.4 C824.1,236.2 695.7,-3.6 410.7,0.7 C127.9,5 0.7,264.5 0.7,264.5 C0.7,264.5 143.4,529.5 428.5,525.2 C711.3,520.9 836.2,265.4 838.4,261.4 C838.4,261.5 838.4,261.4 838.4,261.4" id="Path" fill="#F7F5F0"></path>
                <path d="M656.5,262.9 C656.5,393.7 550.4,499.8 419.6,499.8 C288.8,499.8 182.7,393.7 182.7,262.9 C182.7,132.1 288.7,26 419.6,26 C550.4,26 656.5,132.1 656.5,262.9" id="Path" fill="#6BA5B4"></path>
                <path d="M571.9,262.9 C571.9,347 503.7,415.2 419.6,415.2 C335.5,415.2 267.3,347 267.3,262.9 C267.3,178.8 335.5,110.6 419.6,110.6 C503.7,110.6 571.9,178.8 571.9,262.9" id="Path" fill="#0F1941"></path>
                <path d="M396.2,192.1 C396.2,213.1 379.2,230.2 358.1,230.2 C337.1,230.2 320,213.2 320,192.1 C320,171.1 337,154 358.1,154 C379.2,154.1 396.2,171.1 396.2,192.1" id="Path" fill="#F7F5F0"></path>
            </g>
        </g>
    </g>
</svg>