<?xml version="1.0" encoding="utf-8"?>
<!-- Generator: Adobe Illustrator 21.0.0, SVG Export Plug-In . SVG Version: 6.00 Build 0)  -->
<!DOCTYPE svg PUBLIC "-//W3C//DTD SVG 1.1//EN" "http://www.w3.org/Graphics/SVG/1.1/DTD/svg11.dtd">
<svg version="1.1" id="Laag_1" xmlns="http://www.w3.org/2000/svg" xmlns:xlink="http://www.w3.org/1999/xlink" x="0px" y="0px"
	 width="1275px" height="850px" viewBox="0 0 1275 850" style="enable-background:new 0 0 1275 850;" xml:space="preserve">
<style type="text/css">
	.st0{fill:none;}
	.st1{fill:#F7F5F0;}
	.st2{fill:#6BA5B4;}
	.st3{fill:#0F1941;}
</style>
<rect class="st0" width="1275" height="850"/>
<g>
	<path class="st1" d="M1059.4,428.4C1059.4,428.4,1059.4,428.4,1059.4,428.4c-14.3-25.2-142.7-265-427.7-260.7
		c-282.8,4.3-410,263.8-410,263.8s142.7,265,427.8,260.7C932.3,687.9,1057.2,432.4,1059.4,428.4
		C1059.4,428.5,1059.4,428.4,1059.4,428.4"/>
	<path class="st2" d="M877.5,429.9c0,130.8-106.1,236.9-236.9,236.9c-130.8,0-236.9-106.1-236.9-236.9S509.7,193,640.6,193
		C771.4,193,877.5,299.1,877.5,429.9"/>
	<path class="st3" d="M792.9,429.9c0,84.1-68.2,152.3-152.3,152.3c-84.1,0-152.3-68.2-152.3-152.3s68.2-152.3,152.3-152.3
		C724.7,277.6,792.9,345.8,792.9,429.9"/>
	<path class="st1" d="M617.2,359.1c0,21-17,38.1-38.1,38.1c-21,0-38.1-17-38.1-38.1c0-21,17-38.1,38.1-38.1
		C600.2,321.1,617.2,338.1,617.2,359.1"/>
</g>
<g>
</g>
<g>
</g>
<g>
</g>
<g>
</g>
<g>
</g>
<g>
</g>
<g>
</g>
<g>
</g>
<g>
</g>
<g>
</g>
<g>
</g>
<g>
</g>
<g>
</g>
<g>
</g>
<g>
</g>
</svg>
