<?xml version="1.0" encoding="utf-8"?>
<!-- Generator: Adobe Illustrator 21.0.0, SVG Export Plug-In . SVG Version: 6.00 Build 0)  -->
<!DOCTYPE svg PUBLIC "-//W3C//DTD SVG 1.1//EN" "http://www.w3.org/Graphics/SVG/1.1/DTD/svg11.dtd">
<svg version="1.1" id="Laag_1" xmlns="http://www.w3.org/2000/svg" xmlns:xlink="http://www.w3.org/1999/xlink" x="0px" y="0px"
	 width="1275px" height="850px" viewBox="0 0 1275 850" style="enable-background:new 0 0 1275 850;" xml:space="preserve">
<style type="text/css">
	.st0{fill-rule:evenodd;clip-rule:evenodd;fill:none;}
	.st1{fill-rule:evenodd;clip-rule:evenodd;fill:#0F1941;}
	.st2{fill-rule:evenodd;clip-rule:evenodd;fill:#6BA5B4;}
	.st3{fill-rule:evenodd;clip-rule:evenodd;fill:#E74536;}
</style>
<rect class="st0" width="1275" height="850"/>
<path class="st1" d="M920.8,352.4L920.8,352.4l-0.2-0.1c-0.9-0.8-1.9-1.6-2.9-2.4l-88.7-73.6l0,0c-16-15.2-37.6-24.5-61.4-24.5
	c-42.2,0-77.6,29.3-87,68.7c-12.8-7.1-27.5-11.1-43.2-11.1s-30.4,4-43.2,11.1c-9.3-39.4-44.7-68.7-87-68.7
	c-23.8,0-45.4,9.3-61.4,24.5l0,0l-84.8,70.5l0,0c-33.9,25.5-55.9,66-55.9,111.7c0,77.1,62.5,139.7,139.7,139.7
	c48.8,0,91.8-25.1,116.8-63l0,0c0-0.1,0.1-0.1,0.1-0.2c1.2-1.9,2.5-3.8,3.6-5.8c20.2-30.6,45.7-38,72.1-38c26.8,0,52,7.6,73.1,39.7
	c0.8,1.3,1.7,2.7,2.5,4c0.1,0.1,0.1,0.2,0.2,0.3l0,0c25,38,67.9,63,116.8,63c77.1,0,139.7-62.5,139.7-139.7
	C969.7,416,950.7,378,920.8,352.4z"/>
<circle class="st2" cx="445" cy="458.5" r="111.7"/>
<circle class="st3" cx="637.5" cy="411.6" r="35.7"/>
<circle class="st2" cx="830" cy="458.5" r="111.7"/>
<g>
</g>
<g>
</g>
<g>
</g>
<g>
</g>
<g>
</g>
<g>
</g>
<g>
</g>
<g>
</g>
<g>
</g>
<g>
</g>
<g>
</g>
<g>
</g>
<g>
</g>
<g>
</g>
<g>
</g>
</svg>
