<?xml version="1.0" encoding="utf-8"?>
<!-- Generator: Adobe Illustrator 21.0.0, SVG Export Plug-In . SVG Version: 6.00 Build 0)  -->
<!DOCTYPE svg PUBLIC "-//W3C//DTD SVG 1.1//EN" "http://www.w3.org/Graphics/SVG/1.1/DTD/svg11.dtd">
<svg xmlns="http://www.w3.org/2000/svg" width="1275" height="850" viewBox="0 0 1275 850">
  <g fill="none">
    <rect width="1275" height="850"/>
    <g transform="translate(297 37)">
      <path fill="#F7F5F0" d="M670.6,277.4 C670.6,216.2 621,166.5 559.7,166.5 C554.2,166.5 548.7,166.9 543.4,167.7 C530.4,73.3 449.4,0.6 351.4,0.6 C272.3,0.6 204.4,47.9 174.2,115.8 C162.8,112.8 150.9,111.2 138.6,111.2 C62.1,111.2 0.1,173.2 0.1,249.7 C0.1,326.2 62.1,388.2 138.6,388.2 C138.6,388.2 138.6,388.2 138.6,388.2 L351.4,388.2 C351.4,388.2 351.4,388.2 351.4,388.2 C351.4,388.2 351.4,388.2 351.4,388.2 L559.6,388.2 C559.6,388.2 559.6,388.2 559.6,388.2 C559.6,388.2 559.6,388.2 559.6,388.2 L563.6,388.2 L563.6,388.1 C623.1,386 670.6,337.2 670.6,277.4 Z"/>
      <path fill="#0F1941" d="M184.4,536 L0.1,536 L0.1,18.9 C0.1,8.7 8.4,0.4 18.6,0.4 C28.8,0.4 37.1,8.7 37.1,18.9 L37.1,92.8 L147.4,92.8 L147.4,18.9 C147.4,8.7 155.7,0.4 165.9,0.4 C176.1,0.4 184.4,8.7 184.4,18.9 L184.4,536 Z M37.1,536 L147.4,536 L147.4,462.1 L37.1,462.1 L37.1,536 Z M37.1,240.5 L37.1,314.4 L147.4,314.4 L147.4,240.5 L37.1,240.5 Z M147.4,129.7 L147.4,129.7 L37.1,129.7 L37.1,203.6 L147.4,203.6 L147.4,129.7 Z M37.1,425.2 L147.4,425.2 L147.4,351.3 L37.1,351.3 L37.1,425.2 Z" transform="translate(342 277)"/>
    </g>
  </g>
</svg>
