<?xml version="1.0" encoding="utf-8"?>
<!-- Generator: Adobe Illustrator 21.0.0, SVG Export Plug-In . SVG Version: 6.00 Build 0)  -->
<!DOCTYPE svg PUBLIC "-//W3C//DTD SVG 1.1//EN" "http://www.w3.org/Graphics/SVG/1.1/DTD/svg11.dtd">
<svg version="1.1" id="Laag_1" xmlns="http://www.w3.org/2000/svg" xmlns:xlink="http://www.w3.org/1999/xlink" x="0px" y="0px"
	 width="1275px" height="850px" viewBox="0 0 1275 850" style="enable-background:new 0 0 1275 850;" xml:space="preserve">
<style type="text/css">
	.st0{fill:none;}
	.st1{fill:#FFB511;}
	.st2{fill:#2175D9;}
</style>
<rect class="st0" width="1275" height="850"/>
<path class="st1" d="M968.6,314.4c0-61.2-49.6-110.9-110.9-110.9c-5.5,0-11,0.4-16.3,1.2c-13-94.4-94-167.1-192-167.1
	c-79.1,0-147,47.3-177.2,115.2c-11.4-3-23.3-4.6-35.6-4.6c-76.5,0-138.5,62-138.5,138.5s62,138.5,138.5,138.5c0,0,0,0,0,0h212.8
	c0,0,0,0,0,0c0,0,0,0,0,0h208.2c0,0,0,0,0,0s0,0,0,0h4v-0.1C921.1,423,968.6,374.2,968.6,314.4z"/>
<path class="st2" d="M824.4,850V332.9c0-10.2-8.3-18.5-18.5-18.5c-10.2,0-18.5,8.3-18.5,18.5v73.9H677.1v-73.9
	c0-10.2-8.3-18.5-18.5-18.5c-10.2,0-18.5,8.3-18.5,18.5V850 M677.1,850v-73.9h110.3V850 M677.1,554.5h110.3v73.9H677.1V554.5z
	 M787.4,443.7v73.9H677.1v-73.9H787.4z M677.1,739.2v-73.9h110.3v73.9H677.1z"/>
<g>
</g>
<g>
</g>
<g>
</g>
<g>
</g>
<g>
</g>
<g>
</g>
<g>
</g>
<g>
</g>
<g>
</g>
<g>
</g>
<g>
</g>
<g>
</g>
<g>
</g>
<g>
</g>
<g>
</g>
</svg>
