<?xml version="1.0" encoding="utf-8"?>
<!-- Generator: Adobe Illustrator 21.0.0, SVG Export Plug-In . SVG Version: 6.00 Build 0)  -->
<!DOCTYPE svg PUBLIC "-//W3C//DTD SVG 1.1//EN" "http://www.w3.org/Graphics/SVG/1.1/DTD/svg11.dtd">
<svg version="1.1" id="Laag_1" xmlns="http://www.w3.org/2000/svg" xmlns:xlink="http://www.w3.org/1999/xlink" x="0px" y="0px"
	 width="1275px" height="850px" viewBox="0 0 1275 850" style="enable-background:new 0 0 1275 850;" xml:space="preserve">
<style type="text/css">
	.st0{fill:none;}
	.st1{clip-path:url(#SVGID_2_);fill:#0F1941;}
	.st2{clip-path:url(#SVGID_2_);}
	.st3{fill:#0F1941;}
	.st4{fill:#FFB511;}
	.st5{clip-path:url(#SVGID_2_);fill:#FFB511;}
</style>
<rect class="st0" width="1275" height="850"/>
<g>
	<defs>
		<rect id="SVGID_1_" width="1275" height="850"/>
	</defs>
	<clipPath id="SVGID_2_">
		<use xlink:href="#SVGID_1_"  style="overflow:visible;"/>
	</clipPath>
	<path class="st1" d="M804,521.6c-17.5-17.5-40.8-27.4-65.1-27.4c-0.1,0-0.1,0-0.1,0c-50.3,0-90.9,41.9-90.9,92.6v0.6v111.7
		c0,30.8-25.4,56.4-56.2,56.4h-0.4c-30.9,0-55.8-25.6-55.8-56.4V415.9c0-9.8-8.4-17.7-18.2-17.7s-18.2,7.9-18.2,17.7v283.2
		c0,50.4,41.8,91.2,92.3,91.2h0.4c49.9,0,90.2-40.1,91-89.8c0-0.3,0-0.5,0-0.8v-0.7V587.4v-0.6c0-30.6,25.6-56.5,55.8-56.6
		c30.7,0,56.6,25.9,56.6,56.6V905c0,9.8,8.4,17.7,18.2,17.7c9.8,0,18.2-7.9,18.2-17.7V586.8C831.5,562.5,821.5,539.1,804,521.6z"/>
	<g class="st2">
		<rect x="388" y="-110.9" class="st3" width="259.8" height="465.7"/>
	</g>
	<g class="st2">
		<path class="st4" d="M536.9-109.3v395c0,10.9-8.9,19.7-19.8,19.7c-10.9,0-19.8-8.8-19.8-19.7v-395"/>
	</g>
	<path class="st5" d="M388,354.8l118,156.6c5.6,7.4,16.7,7.4,22.3,0.1l119.5-156.6H388z"/>
</g>
<g>
</g>
<g>
</g>
<g>
</g>
<g>
</g>
<g>
</g>
<g>
</g>
<g>
</g>
<g>
</g>
<g>
</g>
<g>
</g>
<g>
</g>
<g>
</g>
<g>
</g>
<g>
</g>
<g>
</g>
</svg>
