<?xml version="1.0" encoding="utf-8"?>
<!-- Generator: Adobe Illustrator 22.0.0, SVG Export Plug-In . SVG Version: 6.00 Build 0)  -->
<!DOCTYPE svg PUBLIC "-//W3C//DTD SVG 1.1//EN" "http://www.w3.org/Graphics/SVG/1.1/DTD/svg11.dtd">
<svg version="1.1" id="Laag_1" xmlns="http://www.w3.org/2000/svg" xmlns:xlink="http://www.w3.org/1999/xlink" x="0px" y="0px"
	 width="1275px" height="850px" viewBox="0 0 1275 850" style="enable-background:new 0 0 1275 850;" xml:space="preserve">
<metadata><?xpacket begin="﻿" id="W5M0MpCehiHzreSzNTczkc9d"?>
<x:xmpmeta xmlns:x="adobe:ns:meta/" x:xmptk="Adobe XMP Core 5.6-c143 79.161210, 2017/08/11-10:28:36        ">
   <rdf:RDF xmlns:rdf="http://www.w3.org/1999/02/22-rdf-syntax-ns#">
      <rdf:Description rdf:about=""/>
   </rdf:RDF>
</x:xmpmeta>
                                                                                                    
                                                                                                    
                                                                                                    
                                                                                                    
                                                                                                    
                                                                                                    
                                                                                                    
                                                                                                    
                                                                                                    
                                                                                                    
                                                                                                    
                                                                                                    
                                                                                                    
                                                                                                    
                                                                                                    
                                                                                                    
                                                                                                    
                                                                                                    
                                                                                                    
                                                                                                    
                           
<?xpacket end="w"?></metadata>
<style type="text/css">
	.st0{fill-rule:evenodd;clip-rule:evenodd;fill:none;}
	.st1{fill-rule:evenodd;clip-rule:evenodd;fill:#E74536;}
	.st2{fill-rule:evenodd;clip-rule:evenodd;fill:#2175D9;}
	.st3{fill-rule:evenodd;clip-rule:evenodd;fill:#0F1941;}
	.st4{fill-rule:evenodd;clip-rule:evenodd;fill:#F7F5F0;}
</style>
<rect class="st0" width="1275" height="850"/>
<circle class="st1" cx="636.9" cy="301.3" r="55"/>
<circle class="st1" cx="492.9" cy="491.8" r="55"/>
<circle class="st2" cx="781.7" cy="702.1" r="55"/>
<path class="st3" d="M726.7,482.9c1.5-11.7,6.8-23.1,15.8-32.1c21.7-21.6,56.8-21.5,78.4,0.2c9,9.1,14.3,20.5,15.7,32.2l0-310.1
	c0-0.5,0-1,0-1.4c0.1-30.4-24.5-55-54.9-55.1c-30.4-0.1-55,24.5-55.1,54.9c0,0,0,0.1,0,0.1h0L726.7,482.9z"/>
<circle class="st4" cx="781.7" cy="490.1" r="55.4"/>
<path class="st3" d="M547.9,171c0.1-30.4-24.5-55-54.9-55.1c-30.4-0.1-55,24.5-55.1,54.9c0,0,0,0.1,0,0.1h0l0,182.4
	c0.8-29.7,25.2-53.5,55.1-53.5c30.3,0.1,54.9,24.7,54.9,55h0l0-182.4C547.9,172,547.9,171.5,547.9,171z"/>
<circle class="st4" cx="492.9" cy="354.9" r="55"/>
<path class="st3" d="M691.9,441c0.1-30.4-24.5-55-54.9-55.1c-30.4-0.1-55,24.5-55.1,54.9c0,0,0,0.1,0,0.1h0l0,204.6
	c0.8-29.7,25.2-53.5,55.1-53.5c30.3,0.1,54.9,24.7,54.9,55h0l0-204.6C691.9,442,691.9,441.5,691.9,441z"/>
<circle class="st4" cx="636.9" cy="647.1" r="55"/>
</svg>
